<svg width="49" height="46" viewBox="0 0 49 46" fill="none" xmlns="http://www.w3.org/2000/svg">
<g clip-path="url(#clip0_2747_631)">
<path d="M35.2103 0.000960154H35.9754C37.1229 0.387902 37.5936 1.20211 37.5112 2.38982C37.4786 2.85934 37.5054 3.33365 37.5054 3.83389C38.2053 3.83389 38.8409 3.82909 39.4765 3.83389C44.7204 3.87902 48.9636 8.0989 48.9799 13.3509C49.0048 21.061 49.0048 28.771 48.9799 36.482C48.9626 41.71 44.7271 45.9693 39.5148 45.9827C29.5043 46.0096 19.4928 46.0038 9.48228 45.9846C5.22287 45.977 1.51853 43.109 0.363321 38.9938C0.213768 38.4599 0.118858 37.9107 -0.000976562 37.3682C-0.000976562 29.0639 -0.000976562 20.7604 -0.000976562 12.4561C0.0287425 12.3505 0.071883 12.2468 0.0872219 12.1383C0.420842 9.7686 1.48114 7.78685 3.27579 6.21219C5.08482 4.6241 7.20829 3.84638 9.6117 3.83293C10.2262 3.82909 10.8407 3.83293 11.4811 3.83293C11.4811 3.30677 11.507 2.84398 11.4763 2.38598C11.3948 1.19923 11.8646 0.385022 13.0121 0H13.7772C14.9237 0.385982 15.3954 1.19923 15.313 2.3879C15.2804 2.85742 15.3072 3.33173 15.3072 3.80029H33.6784C33.6784 3.29141 33.7033 2.81325 33.6736 2.33893C33.5988 1.16371 34.0887 0.379261 35.2094 0L35.2103 0.000960154ZM24.5057 7.66587C19.5954 7.66587 14.685 7.66491 9.77467 7.66587C6.32535 7.66683 3.82799 10.1623 3.82703 13.6083C3.82511 21.1435 3.82511 28.6788 3.82703 36.2151C3.82703 39.6611 6.32535 42.1584 9.77467 42.1584C19.5791 42.1603 29.3845 42.1603 39.1889 42.1584C42.6698 42.1584 45.1605 39.6688 45.1605 36.1911C45.1624 28.6712 45.1624 21.1522 45.1605 13.6323C45.1605 10.1517 42.6717 7.66683 39.1889 7.66587C34.2948 7.66491 29.3998 7.66587 24.5057 7.66587Z" fill="white"/>
<path d="M24.4749 15.3315C25.1115 15.3315 25.749 15.3228 26.3856 15.3334C27.4795 15.3507 28.3106 16.1706 28.3193 17.2287C28.3288 18.306 27.491 19.1509 26.3741 19.1605C25.1163 19.1721 23.8585 19.173 22.6017 19.1605C21.5088 19.149 20.6767 18.3214 20.668 17.2662C20.6594 16.1879 21.4973 15.3497 22.6122 15.3334C23.2325 15.3247 23.8537 15.3315 24.4749 15.3315Z" fill="white"/>
<path d="M37.5144 19.1622C36.8779 19.1622 36.2403 19.1718 35.6038 19.1603C34.5138 19.1401 33.6835 18.3115 33.6797 17.2553C33.6759 16.1963 34.5032 15.3475 35.5865 15.335C36.8596 15.3197 38.1337 15.3216 39.4068 15.335C40.4969 15.3466 41.3261 16.18 41.3309 17.239C41.3357 18.2971 40.5084 19.1382 39.4241 19.1612C38.7875 19.1747 38.151 19.1641 37.5135 19.1641L37.5144 19.1622Z" fill="white"/>
<path d="M11.4718 22.9956C12.1084 22.9956 12.7459 22.9869 13.3825 22.9975C14.4734 23.0157 15.3027 23.8424 15.3075 24.9015C15.3123 25.9586 14.4849 26.8103 13.4016 26.8237C12.1285 26.84 10.8544 26.8381 9.5813 26.8237C8.49128 26.8122 7.66106 25.9778 7.65627 24.9207C7.65148 23.8434 8.49128 23.0119 9.6091 22.9965C10.2294 22.9879 10.8506 22.9946 11.4718 22.9956Z" fill="white"/>
<path d="M24.4731 22.9961C25.1097 22.9961 25.7472 22.9884 26.3838 22.998C27.4786 23.0153 28.3098 23.8324 28.3203 24.8904C28.3309 25.9687 27.4939 26.8146 26.378 26.8251C25.1202 26.8376 23.8625 26.8376 22.6056 26.8251C21.4936 26.8136 20.6557 25.9629 20.6691 24.8847C20.6825 23.8285 21.5156 23.0133 22.6104 22.997C23.2307 22.9874 23.8519 22.9951 24.4731 22.9951V22.9961Z" fill="white"/>
<path d="M37.4953 26.8304C36.8741 26.8304 36.2538 26.8381 35.6326 26.8295C34.5148 26.8131 33.6759 25.9788 33.6817 24.9024C33.6874 23.8453 34.5186 23.0128 35.6086 23.0023C36.8817 22.9898 38.1558 22.9879 39.429 23.0023C40.5123 23.0157 41.3377 23.8664 41.3319 24.9264C41.3262 25.9634 40.5094 26.7997 39.452 26.8266C38.8001 26.8429 38.1462 26.8295 37.4943 26.8304H37.4953Z" fill="white"/>
<path d="M11.4814 34.4942C10.8448 34.4942 10.2073 34.5048 9.57071 34.4923C8.48453 34.4712 7.65527 33.6349 7.65527 32.5787C7.65527 31.5206 8.48453 30.6786 9.57071 30.6671C10.8438 30.6526 12.1179 30.6526 13.391 30.6671C14.4782 30.6795 15.3065 31.5197 15.3065 32.5787C15.3065 33.6358 14.4772 34.4712 13.391 34.4923C12.7545 34.5048 12.1179 34.4942 11.4804 34.4942H11.4814Z" fill="white"/>
<path d="M24.4693 34.494C23.848 34.494 23.2278 34.5026 22.6066 34.4921C21.4935 34.4738 20.6556 33.6308 20.6681 32.5535C20.6796 31.4973 21.5137 30.6745 22.6075 30.6649C23.8653 30.6534 25.1231 30.6534 26.3799 30.6649C27.4757 30.6745 28.3069 31.4964 28.3184 32.5545C28.3308 33.6327 27.4929 34.4748 26.379 34.4921C25.7424 34.5026 25.1058 34.494 24.4683 34.494H24.4693Z" fill="white"/>
</g>
<defs>
<clipPath id="clip0_2747_631">
<rect width="49" height="46" fill="white"/>
</clipPath>
</defs>
</svg>
