<svg width="40" height="40" viewBox="0 0 40 40" fill="none" xmlns="http://www.w3.org/2000/svg">
<path fill-rule="evenodd" clip-rule="evenodd" d="M28.2541 34.8508H11.7541C9.93085 34.8508 8.4541 33.374 8.4541 31.5508V18.3508C8.4541 16.5275 9.93085 15.0508 11.7541 15.0508H28.2541C30.0773 15.0508 31.5541 16.5275 31.5541 18.3508V31.5508C31.5541 33.374 30.0773 34.8508 28.2541 34.8508Z" stroke="white" stroke-width="2.7" stroke-linecap="round" stroke-linejoin="round"/>
<path d="M13.4043 10.1C13.4043 6.45515 16.3594 3.5 20.0043 3.5C23.6491 3.5 26.6043 6.45515 26.6043 10.1V15.05" stroke="white" stroke-width="2.7" stroke-linecap="round" stroke-linejoin="round"/>
<path d="M20.0086 28.3985V24.125" stroke="white" stroke-width="2.7" stroke-linecap="round" stroke-linejoin="round"/>
<path d="M20.8743 22.0109C21.3575 22.4942 21.3575 23.2777 20.8743 23.761C20.391 24.2443 19.6074 24.2443 19.1242 23.761C18.6409 23.2777 18.6409 22.4942 19.1242 22.0109C19.6074 21.5276 20.391 21.5276 20.8743 22.0109" stroke="white" stroke-width="2.7" stroke-linecap="round" stroke-linejoin="round"/>
</svg>
