<svg width="25" height="27" viewBox="0 0 25 27" fill="none" xmlns="http://www.w3.org/2000/svg">
<g clip-path="url(#clip0_2747_848)">
<path d="M0.0625 3.3125C0.130208 3.05859 0.20638 2.81315 0.291016 2.57617C0.375651 2.33919 0.494141 2.11068 0.646484 1.89062C0.951172 1.5013 1.30241 1.20085 1.7002 0.989258C2.09798 0.77767 2.54232 0.671875 3.0332 0.671875C4.37044 0.671875 5.69922 0.671875 7.01953 0.671875C8.33984 0.671875 9.66862 0.671875 11.0059 0.671875C11.1582 0.671875 11.2979 0.697266 11.4248 0.748047C11.5518 0.798828 11.6745 0.883463 11.793 1.00195C12.2839 1.49284 12.7747 1.99219 13.2656 2.5C13.7734 2.99088 14.2728 3.49023 14.7637 3.99805C15.2546 4.50586 15.7454 5.00521 16.2363 5.49609C16.7441 6.00391 17.2435 6.50326 17.7344 6.99414C17.8359 7.11263 17.9163 7.23958 17.9756 7.375C18.0348 7.51042 18.0645 7.66276 18.0645 7.83203C18.0645 8.13672 18.0645 8.44564 18.0645 8.75879C18.0645 9.07194 18.0645 9.38932 18.0645 9.71094C18.0645 10.0156 17.9671 10.2695 17.7725 10.4727C17.5778 10.6758 17.3451 10.7773 17.0742 10.7773C16.7695 10.7773 16.5241 10.6758 16.3379 10.4727C16.1517 10.2695 16.0586 10.0156 16.0586 9.71094C16.0586 9.55859 16.0586 9.40625 16.0586 9.25391C16.0586 9.10156 16.0586 8.94076 16.0586 8.77148C16.0078 8.77148 15.957 8.77148 15.9062 8.77148C15.8555 8.77148 15.8132 8.77148 15.7793 8.77148C15.3223 8.77148 14.8737 8.77148 14.4336 8.77148C13.9935 8.77148 13.5534 8.77148 13.1133 8.77148C12.25 8.77148 11.5264 8.47526 10.9424 7.88281C10.3584 7.29037 10.0664 6.5625 10.0664 5.69922C10.0664 5.19141 10.0622 4.69206 10.0537 4.20117C10.0452 3.71029 10.041 3.21094 10.041 2.70312C10.0072 2.70312 9.96484 2.70312 9.91406 2.70312C9.86328 2.70312 9.82096 2.70312 9.78711 2.70312C8.68685 2.70312 7.58659 2.70312 6.48633 2.70312C5.38607 2.70312 4.28581 2.70312 3.18555 2.70312C2.81315 2.70312 2.53385 2.80046 2.34766 2.99512C2.16146 3.18978 2.06836 3.46484 2.06836 3.82031C2.06836 5.46224 2.06836 7.0957 2.06836 8.7207C2.06836 10.3626 2.06836 11.9961 2.06836 13.6211C2.06836 15.2461 2.06836 16.8796 2.06836 18.5215C2.06836 20.1465 2.06836 21.7715 2.06836 23.3965C2.06836 23.7689 2.16146 24.0524 2.34766 24.2471C2.53385 24.4417 2.81315 24.5391 3.18555 24.5391C4.15039 24.5391 5.11947 24.5391 6.09277 24.5391C7.06608 24.5391 8.03516 24.5391 9 24.5391C9.38932 24.5391 9.68555 24.6914 9.88867 24.9961C10.0918 25.3008 10.1172 25.6309 9.96484 25.9863C9.89714 26.1387 9.7998 26.2572 9.67285 26.3418C9.5459 26.4264 9.40625 26.5026 9.25391 26.5703H2.65234C2.63542 26.5534 2.61003 26.5407 2.57617 26.5322C2.54232 26.5238 2.51693 26.5195 2.5 26.5195C2.0599 26.418 1.66634 26.2487 1.31934 26.0117C0.972331 25.7747 0.688802 25.4616 0.46875 25.0723C0.384115 24.8861 0.312174 24.6956 0.25293 24.501C0.193685 24.3063 0.130208 24.1159 0.0625 23.9297C0.0625 22.2201 0.0625 20.502 0.0625 18.7754C0.0625 17.0658 0.0625 15.3477 0.0625 13.6211C0.0625 11.8945 0.0625 10.1764 0.0625 8.4668C0.0625 6.74023 0.0625 5.02213 0.0625 3.3125ZM12.0723 4.20117C12.0723 4.45508 12.068 4.71322 12.0596 4.97559C12.0511 5.23796 12.0553 5.49609 12.0723 5.75C12.0723 6.00391 12.1527 6.22396 12.3135 6.41016C12.4743 6.59635 12.6732 6.69792 12.9102 6.71484C13.181 6.73177 13.4561 6.74023 13.7354 6.74023C14.0146 6.74023 14.2897 6.74023 14.5605 6.74023C14.1543 6.31706 13.7396 5.89388 13.3164 5.4707C12.8932 5.04753 12.4785 4.62435 12.0723 4.20117ZM16.5156 26.5703C16.2109 26.5026 15.9105 26.4391 15.6143 26.3799C15.318 26.3206 15.026 26.2487 14.7383 26.1641C13.9935 25.9102 13.3164 25.5293 12.707 25.0215C12.0977 24.5306 11.5856 23.9593 11.1709 23.3076C10.7562 22.6559 10.4473 21.9408 10.2441 21.1621C10.0579 20.4004 10.0072 19.6133 10.0918 18.8008C10.1764 17.9883 10.388 17.2181 10.7266 16.4902C11.0482 15.7793 11.4756 15.1445 12.0088 14.5859C12.542 14.0273 13.1556 13.5618 13.8496 13.1895C14.5436 12.834 15.2969 12.597 16.1094 12.4785C17.0234 12.3431 17.9206 12.3939 18.8008 12.6309C19.681 12.8678 20.4808 13.2572 21.2002 13.7988C21.9196 14.3405 22.5247 15.0007 23.0156 15.7793C23.5065 16.5579 23.8197 17.4128 23.9551 18.3438C23.972 18.4453 23.9889 18.5426 24.0059 18.6357C24.0228 18.7288 24.0397 18.8262 24.0566 18.9277V20.0449C24.0566 20.0788 24.0524 20.1126 24.0439 20.1465C24.0355 20.1803 24.0228 20.2227 24.0059 20.2734C23.8027 21.7122 23.3118 22.9225 22.5332 23.9043C21.7546 24.8861 20.6966 25.6393 19.3594 26.1641C19.0716 26.2656 18.7796 26.3418 18.4834 26.3926C18.1872 26.4434 17.8952 26.5026 17.6074 26.5703H16.5156ZM17.0488 14.4336C16.3717 14.4336 15.7285 14.569 15.1191 14.8398C14.5098 15.0938 13.9808 15.4492 13.5322 15.9062C13.0837 16.3633 12.724 16.9049 12.4531 17.5312C12.1992 18.1406 12.0723 18.7923 12.0723 19.4863C12.0553 20.1803 12.1823 20.832 12.4531 21.4414C12.707 22.0677 13.0625 22.6094 13.5195 23.0664C13.9766 23.5234 14.5098 23.8874 15.1191 24.1582C15.7285 24.4121 16.3802 24.5391 17.0742 24.5391C17.7513 24.5391 18.3945 24.4036 19.0039 24.1328C19.6133 23.8789 20.1423 23.5234 20.5908 23.0664C21.0394 22.6094 21.3991 22.0677 21.6699 21.4414C21.9238 20.832 22.0508 20.1803 22.0508 19.4863C22.0508 18.7923 21.9238 18.1406 21.6699 17.5312C21.3991 16.9049 21.0394 16.3633 20.5908 15.9062C20.1423 15.4492 19.6133 15.0938 19.0039 14.8398C18.3945 14.569 17.7428 14.4336 17.0488 14.4336ZM7.04492 12.8086C6.72331 12.8086 6.40592 12.8086 6.09277 12.8086C5.77962 12.8086 5.46224 12.8086 5.14062 12.8086C4.81901 12.8086 4.56087 12.7113 4.36621 12.5166C4.17155 12.3219 4.07422 12.0807 4.07422 11.793C4.07422 11.5052 4.17155 11.2682 4.36621 11.082C4.56087 10.8958 4.81901 10.8027 5.14062 10.8027C5.76693 10.7858 6.40169 10.7773 7.04492 10.7773C7.68815 10.7773 8.33138 10.7858 8.97461 10.8027C9.29622 10.8027 9.55436 10.8958 9.74902 11.082C9.94368 11.2682 10.041 11.5052 10.041 11.793C10.041 12.0807 9.94368 12.3219 9.74902 12.5166C9.55436 12.7113 9.29622 12.8086 8.97461 12.8086C8.653 12.8086 8.33138 12.8086 8.00977 12.8086C7.68815 12.8086 7.36654 12.8086 7.04492 12.8086ZM6.05469 8.77148C5.88542 8.77148 5.72461 8.77148 5.57227 8.77148C5.41992 8.77148 5.25911 8.77148 5.08984 8.77148C4.80208 8.77148 4.55664 8.67415 4.35352 8.47949C4.15039 8.28483 4.05729 8.03516 4.07422 7.73047C4.07422 7.45963 4.17155 7.22689 4.36621 7.03223C4.56087 6.83756 4.80208 6.74023 5.08984 6.74023C5.41146 6.74023 5.7373 6.74023 6.06738 6.74023C6.39746 6.74023 6.72331 6.74023 7.04492 6.74023C7.33268 6.74023 7.57389 6.83756 7.76855 7.03223C7.96322 7.22689 8.06055 7.4681 8.06055 7.75586C8.06055 8.02669 7.96322 8.25944 7.76855 8.4541C7.57389 8.64876 7.33268 8.75456 7.04492 8.77148C6.87565 8.77148 6.71061 8.77148 6.5498 8.77148C6.389 8.77148 6.22396 8.77148 6.05469 8.77148ZM18.0645 18.4707C18.2337 18.4707 18.3945 18.4707 18.5469 18.4707C18.6992 18.4707 18.8516 18.4707 19.0039 18.4707C19.3086 18.4707 19.5583 18.568 19.7529 18.7627C19.9476 18.9574 20.0449 19.1986 20.0449 19.4863C20.0449 19.7741 19.9476 20.0153 19.7529 20.21C19.5583 20.4046 19.3086 20.502 19.0039 20.502C18.8516 20.502 18.6992 20.502 18.5469 20.502C18.3945 20.502 18.2337 20.502 18.0645 20.502C18.0645 20.6712 18.0645 20.832 18.0645 20.9844C18.0645 21.1367 18.0645 21.2891 18.0645 21.4414C18.0645 21.763 17.9671 22.0254 17.7725 22.2285C17.5778 22.4316 17.3366 22.5332 17.0488 22.5332C16.7611 22.5163 16.5241 22.4062 16.3379 22.2031C16.1517 22 16.0586 21.7461 16.0586 21.4414C16.0586 21.2891 16.0586 21.1367 16.0586 20.9844C16.0586 20.832 16.0586 20.6712 16.0586 20.502C15.8724 20.502 15.6947 20.502 15.5254 20.502C15.3561 20.502 15.1868 20.502 15.0176 20.502C14.7467 20.485 14.5182 20.3792 14.332 20.1846C14.1458 19.9899 14.0527 19.7572 14.0527 19.4863C14.0527 19.2155 14.1458 18.9827 14.332 18.7881C14.5182 18.5934 14.7467 18.4876 15.0176 18.4707C15.1361 18.4707 15.2588 18.4707 15.3857 18.4707C15.5127 18.4707 15.6439 18.4707 15.7793 18.4707C15.8132 18.4707 15.8555 18.4707 15.9062 18.4707C15.957 18.4707 16.0078 18.4707 16.0586 18.4707C16.0586 18.3014 16.0586 18.1406 16.0586 17.9883C16.0586 17.8359 16.0586 17.6836 16.0586 17.5312C16.0586 17.2266 16.1517 16.9727 16.3379 16.7695C16.5241 16.5664 16.7611 16.4564 17.0488 16.4395C17.3366 16.4395 17.5778 16.541 17.7725 16.7441C17.9671 16.9473 18.0645 17.2096 18.0645 17.5312C18.0645 17.6836 18.0645 17.8359 18.0645 17.9883C18.0645 18.1406 18.0645 18.3014 18.0645 18.4707Z" fill="#3D9CFC"/>
</g>
<defs>
<clipPath id="clip0_2747_848">
<rect width="24" height="26" fill="white" transform="matrix(1 0 0 -1 0.0595703 26.6211)"/>
</clipPath>
</defs>
</svg>
