<svg width="37" height="42" viewBox="0 0 37 42" fill="none" xmlns="http://www.w3.org/2000/svg">
<g clip-path="url(#clip0_2747_73)">
<path d="M36.9289 25.3796C36.8131 26.1581 36.7116 26.9399 36.5782 27.7151C36.4305 28.5731 35.7366 29.149 34.901 29.1408C34.0939 29.1326 33.3371 28.5526 33.2817 27.7643C33.2423 27.2048 33.3883 26.6314 33.4588 26.0654C33.7885 23.4175 33.4856 20.8942 31.9292 18.617C30.8939 17.1019 29.5222 15.9026 28.1235 14.7263C26.5588 13.4096 24.9546 12.1357 23.6013 10.5976C22.0743 8.86184 20.9744 6.91605 20.5004 4.65609C20.4895 4.60605 20.4576 4.56012 20.3846 4.40344C19.8325 4.99488 19.2813 5.51168 18.8173 6.09492C17.4791 7.77656 16.9052 9.72398 16.776 11.8322C16.6493 13.9117 15.2054 15.6245 13.1851 16.1856C11.1539 16.7491 8.98589 16.0068 7.73913 14.3202C7.65943 14.2119 7.57972 14.1036 7.47904 13.9658C6.51 15.0052 5.66009 16.0954 5.01993 17.3291C2.74791 21.7096 2.95514 26.1179 5.1097 30.432C7.2458 34.7091 10.7646 37.4719 15.5695 38.325C21.503 39.3783 26.6125 37.8164 30.518 33.1259C31.1666 32.3466 32.1533 32.1858 32.921 32.7551C33.6853 33.3219 33.8053 34.3186 33.1735 35.1176C30.3997 38.6252 26.7568 40.7572 22.3193 41.5808C18.6571 42.2609 15.0653 41.9738 11.6061 40.5825C7.04696 38.7483 3.77485 35.5786 1.77467 31.1924C0.0177969 27.3353 -0.410094 23.3272 0.680609 19.2093C1.28385 16.9329 2.38043 14.8862 3.8856 13.0627C5.20787 11.4598 6.57963 9.89543 7.9514 8.33273C8.84746 7.31227 10.4273 7.59527 10.8392 8.83395C11.0238 9.3893 10.9282 9.91184 10.5565 10.377C10.2226 10.7953 10.0598 11.2596 10.1798 11.7912C10.3644 12.6107 11.1279 13.1652 11.9576 13.0922C12.7891 13.0192 13.4125 12.3941 13.4519 11.5459C13.6046 8.26629 14.8186 5.42227 17.1058 3.02449C18.3575 1.71199 19.8359 0.706289 21.5256 0H22.1951C23.1734 0.326484 23.5434 1.0016 23.551 2.00156C23.5661 4.13438 24.2348 6.07031 25.5654 7.77902C26.5361 9.02508 27.7225 10.0562 28.9172 11.0849C30.2043 12.1931 31.5123 13.2833 32.7322 14.4588C34.6031 16.2619 35.9573 18.3873 36.5396 20.9245C36.709 21.6636 36.8005 22.4208 36.928 23.1697V25.3805L36.9289 25.3796Z" fill="white"/>
<path d="M15.138 30.7827C14.5197 30.7491 14.0113 30.4817 13.6983 29.9189C13.3946 29.3718 13.4181 28.8189 13.7445 28.2849C13.8149 28.1692 13.9047 28.0601 14.002 27.965C16.2195 25.7936 18.437 23.6222 20.6595 21.4558C21.1184 21.0087 21.6755 20.8463 22.3098 21.0235C23.4769 21.3491 23.9132 22.6846 23.1614 23.6165C23.0926 23.7018 23.0146 23.7814 22.9357 23.8576C20.7761 25.97 18.6149 28.0806 16.4586 30.1962C16.0979 30.5498 15.6834 30.7671 15.138 30.7827Z" fill="white"/>
<path d="M15.1736 22.5929C14.2549 22.597 13.4964 21.862 13.4922 20.9637C13.488 20.0597 14.2322 19.3256 15.1559 19.3223C16.0814 19.319 16.8331 20.045 16.8373 20.9473C16.8415 21.8464 16.0906 22.5888 15.1736 22.5937V22.5929Z" fill="white"/>
<path d="M21.8798 29.1454C22.8027 29.1536 23.5436 29.8935 23.5335 30.7967C23.5243 31.6941 22.7583 32.4267 21.8412 32.416C20.9234 32.4053 20.1792 31.6589 20.1876 30.759C20.1968 29.8566 20.9511 29.1364 21.879 29.1446L21.8798 29.1454Z" fill="white"/>
</g>
<defs>
<clipPath id="clip0_2747_73">
<rect width="37" height="42" fill="white"/>
</clipPath>
</defs>
</svg>
