<svg width="20" height="20" viewBox="0 0 20 20" fill="none" xmlns="http://www.w3.org/2000/svg">
<g clip-path="url(#clip0_2747_809)">
<path d="M4.25293 0C8.06469 0 11.8823 0 15.7 0C15.7412 0.0117647 15.7823 0.0294118 15.8294 0.0352941C17.6823 0.252941 19.247 1.58235 19.7588 3.38235C19.8412 3.66471 19.8882 3.96471 19.947 4.25294V15.7235C19.9353 15.7588 19.9176 15.7941 19.9118 15.8294C19.6176 17.7941 18.5294 19.1059 16.6647 19.7588C16.3588 19.8647 16.0235 19.9059 15.7059 19.9765H4.25293C4.21175 19.9647 4.17058 19.9471 4.12352 19.9412C1.81764 19.6765 0.0176356 17.7 0.0117532 15.3706C-1.14888e-05 11.7824 -1.14888e-05 8.19412 0.0117532 4.60588C0.0176356 2.66471 1.29411 0.9 3.12352 0.276471C3.48822 0.152941 3.87646 0.0882353 4.25293 0ZM9.96469 18.4176C11.7235 18.4176 13.4823 18.4176 15.2412 18.4176C17.0059 18.4176 18.3823 17.0412 18.3882 15.2765C18.3882 11.7529 18.3882 8.22941 18.3882 4.7C18.3882 2.93529 17.0059 1.55882 15.247 1.55882C11.7353 1.55882 8.22352 1.55882 4.71175 1.55882C2.94116 1.55882 1.57058 2.94118 1.56469 4.71765C1.56469 8.22941 1.56469 11.7412 1.56469 15.2529C1.56469 15.4647 1.58234 15.6824 1.62352 15.8941C1.9294 17.3882 3.18234 18.4118 4.70587 18.4176C6.45881 18.4176 8.21175 18.4176 9.96469 18.4176Z" fill="#3D9CFC"/>
<path d="M10.7529 14.1238C11.1471 14.1238 11.5118 14.1238 11.8824 14.1238C12.3529 14.1238 12.7 14.4591 12.7 14.9062C12.7 15.3532 12.3529 15.6826 11.8765 15.6826C10.6118 15.6826 9.34706 15.6826 8.08235 15.6826C7.49412 15.6826 7.12941 15.2062 7.28824 14.665C7.38824 14.3415 7.67059 14.1356 8.04118 14.1238C8.22941 14.1238 8.41765 14.1238 8.60588 14.1238C8.79412 14.1238 8.98235 14.1238 9.2 14.1238C9.2 14.0473 9.2 13.9767 9.2 13.912C9.2 12.5473 9.2 11.1826 9.2 9.81793C9.2 9.24734 8.88823 8.94145 8.32353 8.93557C8.18823 8.93557 8.04706 8.94145 7.91765 8.92381C7.51765 8.8591 7.25882 8.54734 7.25882 8.15322C7.25882 7.76498 7.51176 7.43557 7.90588 7.3944C8.83529 7.2944 9.78823 7.48851 10.4294 8.52381C10.6588 8.8944 10.7588 9.31204 10.7588 9.74734C10.7588 11.1532 10.7588 12.5532 10.7588 13.9591V14.1238H10.7529Z" fill="#3D9CFC"/>
<path d="M9.97059 6.24003C9.44118 6.24003 9 5.79885 9 5.27532C9 4.72238 9.41765 4.29297 9.96471 4.29297C10.5176 4.29297 10.9471 4.72238 10.9471 5.2812C10.9471 5.80473 10.5 6.24003 9.97059 6.24003Z" fill="#3D9CFC"/>
</g>
<defs>
<clipPath id="clip0_2747_809">
<rect width="20" height="20" fill="white"/>
</clipPath>
</defs>
</svg>
