<svg width="24" height="25" viewBox="0 0 24 25" fill="none" xmlns="http://www.w3.org/2000/svg">
<path fill-rule="evenodd" clip-rule="evenodd" d="M0 0.53125H24V24.5312H0V0.53125Z" fill="white"/>
<path fill-rule="evenodd" clip-rule="evenodd" d="M15.7138 7.36945C18.1647 9.82038 18.1647 13.7941 15.7138 16.245C13.2629 18.696 9.28913 18.696 6.8382 16.245C4.38727 13.7941 4.38727 9.82038 6.8382 7.36945C9.28913 4.91852 13.2629 4.91852 15.7138 7.36945Z" fill="white"/>
<path d="M15.7138 7.36945C18.1647 9.82038 18.1647 13.7941 15.7138 16.245C13.2629 18.696 9.28913 18.696 6.8382 16.245C4.38727 13.7941 4.38727 9.82038 6.8382 7.36945C9.28913 4.91852 13.2629 4.91852 15.7138 7.36945" stroke="#467ED5" stroke-width="1.5" stroke-linecap="round" stroke-linejoin="round"/>
<path fill-rule="evenodd" clip-rule="evenodd" d="M19.0009 19.5322L15.7109 16.2422L19.0009 19.5322Z" fill="white"/>
<path d="M19.0009 19.5322L15.7109 16.2422" stroke="#467ED5" stroke-width="1.5" stroke-linecap="round" stroke-linejoin="round"/>
</svg>
