<svg width="40" height="40" viewBox="0 0 40 40" fill="none" xmlns="http://www.w3.org/2000/svg">
<g clip-path="url(#clip0_2747_208)">
<path d="M22.7617 15.4364H18.7324V11.4012C18.7324 10.473 17.9909 9.73047 17.0641 9.73047C16.1373 9.73047 15.3958 10.473 15.3958 11.4012V15.4364H11.3665C10.4397 15.4364 9.69824 16.1789 9.69824 17.1071C9.69824 18.0353 10.4397 18.7779 11.3665 18.7779H15.3958V22.813C15.3958 23.7412 16.1373 24.4838 17.0641 24.4838C17.9909 24.4838 18.7324 23.7412 18.7324 22.813V18.7779H22.7617C23.6885 18.7779 24.43 18.0353 24.43 17.1071C24.43 16.1789 23.6787 15.4364 22.7617 15.4364Z" fill="#3D9CFC"/>
<path d="M17.0829 30.8451C9.50244 30.8451 3.3561 24.6996 3.3561 17.0982C3.3561 9.49682 9.49268 3.36102 17.0829 3.36102C24.6732 3.36102 30.8098 9.51637 30.8098 17.108C30.8098 24.6996 24.6634 30.8549 17.0829 30.8549V30.8451ZM39.5122 37.2252L30.2634 27.9629C32.6927 25.0122 34.1463 21.2213 34.1463 17.108C34.1463 7.65999 26.5073 0 17.0732 0C7.63902 0 0 7.65999 0 17.108C0 26.5559 7.63902 34.2159 17.0829 34.2159C21.2 34.2159 24.9659 32.7601 27.9122 30.3371L37.161 39.5994C37.5902 40.0293 38.8878 40.2443 39.5219 39.5994C40.1659 38.9448 40.1659 37.8896 39.5219 37.235L39.5122 37.2252Z" fill="#3D9CFC"/>
</g>
<defs>
<clipPath id="clip0_2747_208">
<rect width="40" height="40" fill="white"/>
</clipPath>
</defs>
</svg>
