<svg width="20" height="16" viewBox="0 0 20 16" fill="none" xmlns="http://www.w3.org/2000/svg">
<g clip-path="url(#clip0_2747_27)">
<path d="M16.4872 15.6513C12.1641 15.6513 7.84615 15.6615 3.52308 15.6615C3.48718 15.6513 3.45128 15.6308 3.41538 15.6256C1.48205 15.3744 0.0205128 13.7385 0.0102564 11.7897C0 9.14872 0 6.51282 0 3.8718C0.0102564 2.24103 1.07179 0.769231 2.61026 0.241026C2.90256 0.138462 3.21026 0.0871795 3.51282 0.0102564C7.8359 0.0102564 12.1538 0 16.4769 0C16.5128 0.0102564 16.5487 0.0307692 16.5846 0.0358974C18.2051 0.251282 19.5026 1.42051 19.8821 3.01026C19.9231 3.17949 19.9538 3.34872 19.9897 3.52308C19.9897 6.38974 19.9949 9.26154 20 12.1282C19.9897 12.1641 19.9692 12.2 19.9641 12.2359C19.7282 13.7487 18.9077 14.8051 17.4923 15.3795C17.1744 15.5077 16.8205 15.5641 16.4872 15.6513ZM10 14.0923C12.0051 14.0923 14.0103 14.0923 16.0103 14.0872C17.4154 14.0872 18.4359 13.0667 18.4359 11.6564C18.4359 9.10256 18.4359 6.54359 18.4308 3.98974C18.4308 2.58462 17.4103 1.5641 16 1.56923C12 1.56923 8 1.57436 3.99487 1.57949C2.57436 1.57949 1.55897 2.6 1.55897 4.02051C1.55897 6.5641 1.55897 9.10256 1.5641 11.6462C1.5641 13.0923 2.57436 14.0974 4.02564 14.0974C6.01539 14.0974 8.00513 14.0974 10 14.0923Z" fill="#3D9CFC"/>
<path d="M13.4148 7.81571C13.6558 8.07212 13.8968 8.31827 14.1327 8.56955C14.9532 9.42596 15.7737 10.2824 16.5994 11.1337C16.8045 11.349 16.9224 11.5901 16.8558 11.8926C16.7942 12.1901 16.6148 12.3952 16.3173 12.4824C16.0045 12.5798 15.7378 12.4926 15.5173 12.267C15.1019 11.8413 14.6968 11.4106 14.2866 10.9849C13.6353 10.308 12.9891 9.63109 12.3532 8.96955C12.1327 9.17981 11.9122 9.37981 11.6968 9.58494C11.0353 10.2311 10.2609 10.4465 9.3686 10.2208C8.95835 10.1131 8.60963 9.89263 8.30706 9.59007C8.10194 9.38494 7.88142 9.19007 7.61988 8.94904C7.6045 8.97468 7.57373 9.04648 7.52758 9.09776C6.52758 10.1439 5.52758 11.1901 4.5327 12.2362C4.32245 12.4567 4.07117 12.5798 3.76347 12.5183C3.15322 12.3952 2.92758 11.6772 3.35322 11.2055C3.64553 10.8824 3.95322 10.5747 4.25578 10.2567C4.98399 9.49263 5.71732 8.73366 6.44553 7.96955C6.49168 7.9234 6.53271 7.87212 6.58399 7.81571C6.53271 7.7593 6.48142 7.70801 6.43527 7.65673C5.42501 6.61571 4.41476 5.56955 3.39937 4.52853C3.18912 4.31314 3.07629 4.07212 3.13783 3.76955C3.19937 3.47212 3.37886 3.26699 3.67629 3.17981C3.98399 3.08237 4.25578 3.16955 4.47629 3.39519C4.97886 3.90801 5.47629 4.42084 5.97373 4.93878C7.10194 6.10289 8.23014 7.26699 9.36347 8.43109C9.77886 8.86186 10.2199 8.86186 10.6353 8.43109C12.2404 6.76955 13.8507 5.10801 15.4558 3.44135C15.6763 3.21571 15.9224 3.08237 16.2404 3.14391C16.5378 3.20545 16.743 3.38494 16.8353 3.67725C16.9327 3.97981 16.8558 4.24648 16.6404 4.47212C16.2507 4.88237 15.8558 5.2875 15.4609 5.69776C14.825 6.3593 14.184 7.01571 13.543 7.67725C13.5019 7.71827 13.466 7.76442 13.4199 7.81571H13.4148Z" fill="#3D9CFC"/>
</g>
<defs>
<clipPath id="clip0_2747_27">
<rect width="20" height="16" fill="white"/>
</clipPath>
</defs>
</svg>
