<svg width="31" height="17" viewBox="0 0 31 17" fill="none" xmlns="http://www.w3.org/2000/svg">
<g clip-path="url(#clip0_2747_1147)">
<g clip-path="url(#clip1_2747_1147)">
<g opacity="0.8">
<mask id="mask0_2747_1147" style="mask-type:luminance" maskUnits="userSpaceOnUse" x="0" y="0" width="31" height="17">
<path d="M31 0.691406H0V16.6914H31V0.691406Z" fill="white"/>
</mask>
<g mask="url(#mask0_2747_1147)">
<g opacity="0.4">
<path fill-rule="evenodd" clip-rule="evenodd" d="M29.1403 3.51239C26.6603 0.522387 22.4403 -0.187613 19.1703 1.83239C19.0103 1.93239 18.9603 2.14239 19.0503 2.30239C19.1503 2.46239 19.3503 2.52239 19.5103 2.42239C22.5103 0.582387 26.3703 1.23239 28.6303 3.95239C30.8903 6.68239 30.8903 10.6924 28.6303 13.4224C26.3703 16.1524 22.5103 16.8024 19.5103 14.9524C19.3503 14.8524 19.1503 14.9124 19.0503 15.0724C18.9603 15.2324 19.0103 15.4524 19.1703 15.5424C22.4403 17.5624 26.6603 16.8524 29.1403 13.8624C31.6103 10.8824 31.6103 6.50239 29.1403 3.51239ZM25.7503 6.77239C25.7503 5.36239 24.5103 4.43239 22.9103 4.43239H21.9503C21.7603 4.43239 21.6103 4.58239 21.6103 4.78239C21.6103 4.97239 21.7603 5.12239 21.9503 5.12239H22.9103C24.1803 5.12239 25.0803 5.80239 25.0803 6.74239C25.0503 7.25239 24.8103 7.74239 24.4103 8.10239C24.0203 8.44239 23.5103 8.62239 22.9903 8.58239C22.8003 8.56239 22.6403 8.71239 22.6303 8.90239C22.6203 9.09239 22.7503 9.25239 22.9403 9.27239C23.6403 9.32239 24.3303 9.09239 24.8503 8.62239C25.3803 8.15239 25.7103 7.48239 25.7503 6.77239ZM24.5503 10.4424H22.7503C22.5703 10.4424 22.4203 10.5924 22.4203 10.7824C22.4203 10.9724 22.5703 11.1324 22.7503 11.1324H24.5503C24.7403 11.1324 24.8903 10.9724 24.8903 10.7824C24.8903 10.5924 24.7403 10.4424 24.5503 10.4424Z" fill="#3D9CFC"/>
</g>
<g opacity="0.7">
<path fill-rule="evenodd" clip-rule="evenodd" d="M21.4499 3.51239C18.9699 0.522387 14.7499 -0.187613 11.4799 1.83239C11.3199 1.93239 11.2699 2.14239 11.3599 2.30239C11.4599 2.46239 11.6599 2.52239 11.8199 2.42239C14.8199 0.582387 18.6699 1.23239 20.9399 3.95239C23.1999 6.68239 23.1999 10.6924 20.9399 13.4224C18.6699 16.1524 14.8199 16.8024 11.8199 14.9524C11.6599 14.8524 11.4599 14.9124 11.3599 15.0724C11.2699 15.2324 11.3199 15.4524 11.4799 15.5424C14.7499 17.5624 18.9699 16.8524 21.4499 13.8624C23.9199 10.8824 23.9199 6.50239 21.4499 3.51239ZM18.0599 6.77239C18.0599 5.36239 16.8199 4.43239 15.2199 4.43239H14.2499C14.0699 4.43239 13.9199 4.58239 13.9199 4.78239C13.9199 4.97239 14.0699 5.12239 14.2499 5.12239H15.2199C16.4899 5.12239 17.3899 5.80239 17.3899 6.74239C17.3499 7.25239 17.1099 7.74239 16.7199 8.10239C16.3299 8.44239 15.8199 8.62239 15.2999 8.58239C15.1099 8.56239 14.9499 8.71239 14.9399 8.90239C14.9199 9.09239 15.0599 9.25239 15.2499 9.27239C15.9499 9.32239 16.6299 9.09239 17.1599 8.62239C17.6899 8.15239 18.0099 7.48239 18.0599 6.77239ZM16.8599 10.4424H15.0599C14.8799 10.4424 14.7299 10.5924 14.7299 10.7824C14.7299 10.9724 14.8799 11.1324 15.0599 11.1324H16.8599C17.0499 11.1324 17.1999 10.9724 17.1999 10.7824C17.1999 10.5924 17.0499 10.4424 16.8599 10.4424Z" fill="#3D9CFC"/>
</g>
<path fill-rule="evenodd" clip-rule="evenodd" d="M7.8 0.691406C3.49 0.691406 0 4.27141 0 8.68141C0 13.1014 3.49 16.6814 7.8 16.6814C12.11 16.6814 15.61 13.1014 15.61 8.68141C15.61 4.26141 12.11 0.691406 7.8 0.691406ZM7.8 15.9914C3.86 15.9914 0.67 12.7214 0.67 8.68141C0.67 4.65141 3.86 1.38141 7.8 1.38141C11.74 1.38141 14.94 4.65141 14.94 8.68141C14.94 12.7214 11.74 15.9914 7.8 15.9914ZM7.52 4.43141H6.43C6.06 4.43141 5.76 4.73141 5.76 5.11141V10.4414H5.57C5.39 10.4414 5.23 10.5914 5.23 10.7814C5.23 10.9714 5.39 11.1314 5.57 11.1314H5.76V12.1214C5.76 12.3114 5.91 12.4714 6.1 12.4714C6.29 12.4714 6.44 12.3114 6.44 12.1214V11.1314H9.17C9.35 11.1314 9.5 10.9714 9.5 10.7814C9.5 10.5914 9.35 10.4414 9.17 10.4414H6.44V5.12141H7.52C8.79 5.12141 9.7 5.80141 9.7 6.74141C9.6 7.83141 8.64 8.66141 7.55 8.58141C7.36 8.56141 7.2 8.71141 7.19 8.90141C7.17 9.09141 7.31 9.25141 7.5 9.27141C8.96 9.38141 10.23 8.27141 10.37 6.78141C10.37 5.36141 9.13 4.43141 7.52 4.43141Z" fill="#3D9CFC"/>
</g>
</g>
</g>
</g>
<defs>
<clipPath id="clip0_2747_1147">
<rect width="31" height="16" fill="white" transform="translate(0 0.691406)"/>
</clipPath>
<clipPath id="clip1_2747_1147">
<rect width="31" height="16" fill="white" transform="translate(0 0.691406)"/>
</clipPath>
</defs>
</svg>
