<svg width="22" height="23" viewBox="0 0 22 23" fill="none" xmlns="http://www.w3.org/2000/svg">
<g clip-path="url(#clip0_2747_900)">
<path d="M18.0773 5.60496C18.0773 5.20774 17.8084 4.87774 17.4173 4.79218C17.0629 4.71274 16.8001 4.86551 16.5556 5.10385C12.5651 9.10662 8.56841 13.1155 4.57174 17.1183C4.52896 17.1611 4.48007 17.21 4.44341 17.2527C4.22952 17.4972 4.18063 17.7722 4.28452 18.0716C4.39452 18.3772 4.60841 18.5727 4.9323 18.6277C5.2623 18.6827 5.51285 18.5483 5.73285 18.3222C7.81063 16.2383 9.88841 14.1544 11.9662 12.0705C13.8912 10.1394 15.8162 8.20829 17.7473 6.28329C17.9367 6.09385 18.0712 5.88607 18.0712 5.60496H18.0773ZM9.58896 8.66051C10.2123 8.64218 10.7806 8.46496 11.2329 8.02496C12.1556 7.12662 13.0601 6.21607 13.9645 5.2994C14.2212 5.04274 14.2579 4.71274 14.1173 4.38274C13.879 3.83885 13.1884 3.72274 12.7545 4.15051C11.9234 4.97551 11.1045 5.80051 10.2795 6.63162C9.80896 7.10218 9.35674 7.09607 8.88618 6.62551C8.07341 5.80662 7.26674 4.98774 6.44785 4.16885C6.09341 3.8144 5.58618 3.80218 5.25007 4.13218C4.90785 4.46218 4.91396 4.98774 5.26841 5.34829C6.10563 6.19774 6.94896 7.04718 7.7923 7.89662C8.2873 8.39774 8.8923 8.64218 9.59507 8.66051H9.58896ZM7.34619 10.8788C7.33396 10.225 7.13841 9.6444 6.69841 9.17996C6.08118 8.53218 5.44563 7.90274 4.81007 7.26718C4.62063 7.07774 4.3823 6.99829 4.11952 7.04107C3.78952 7.09607 3.5573 7.2794 3.4473 7.59718C3.3373 7.92718 3.41063 8.22051 3.65507 8.46496C4.22341 9.04551 4.79785 9.61996 5.36618 10.1944C5.78785 10.6222 5.78785 11.0866 5.36618 11.5205C4.80396 12.095 4.23563 12.6633 3.67341 13.2438C3.31896 13.6105 3.31285 14.13 3.65507 14.46C3.9973 14.79 4.49841 14.7838 4.85285 14.4233C5.45785 13.8183 6.05674 13.2133 6.64952 12.6022C7.12007 12.1194 7.34007 11.5266 7.3523 10.8727L7.34619 10.8788Z" fill="white"/>
<path d="M5.03588 22.0188C4.64477 21.9638 4.24144 21.9393 3.85644 21.8538C1.64421 21.3404 0.0186584 19.336 0.0125473 17.0565C0.000325063 13.2065 -0.00578605 9.35655 0.0125473 5.50655C0.0247695 2.76266 2.24921 0.550434 5.01144 0.544323C8.81866 0.532101 12.6259 0.532101 16.4331 0.544323C18.9325 0.556545 20.9859 2.35321 21.377 4.82821C21.4075 5.02988 21.4259 5.23155 21.4259 5.43321C21.4259 6.87543 21.432 8.31766 21.4259 9.75988C21.4259 10.3893 20.8942 10.7804 20.3198 10.591C19.9653 10.4749 19.7575 10.1632 19.7575 9.72321C19.7575 8.33599 19.7575 6.94877 19.7575 5.56766C19.7575 4.06432 18.8042 2.78099 17.362 2.35932C17.0259 2.26155 16.6592 2.21266 16.3109 2.21266C12.5892 2.20043 8.86755 2.20655 5.14588 2.21266C3.44699 2.21266 2.10255 3.2821 1.76644 4.90155C1.71144 5.1521 1.69921 5.41488 1.69921 5.67155C1.69921 9.39932 1.69921 13.1332 1.69921 16.861C1.69921 18.8593 3.14144 20.3199 5.14588 20.326C7.51088 20.3321 9.88199 20.326 12.247 20.326C12.3692 20.326 12.5037 20.326 12.6198 20.3565C13.0048 20.4482 13.2431 20.7843 13.2309 21.1999C13.2187 21.5971 12.9559 21.9088 12.5709 21.9821C12.5098 21.9943 12.4487 22.0127 12.3875 22.0249H5.03588V22.0188Z" fill="#3D9CFC"/>
<path d="M21.4691 16.2264C21.0536 18.1637 19.8741 19.6853 18.6947 21.1887C17.8575 22.2581 16.2136 22.2887 15.3458 21.262C14.3925 20.1253 13.5736 18.897 12.9197 17.5526C11.6914 15.0164 13.4575 12.022 16.128 11.527C18.7191 11.0442 21.0536 12.7492 21.4264 15.377C21.4325 15.4259 21.4508 15.4687 21.463 15.5176V16.2326L21.4691 16.2264ZM16.9958 13.1037C16.8247 13.122 16.6475 13.1342 16.4764 13.1648C14.8569 13.4459 13.653 15.3159 14.4658 16.8987C15.0525 18.0537 15.7736 19.1109 16.5741 20.1192C16.8064 20.4126 17.1914 20.4003 17.4297 20.1131C17.6436 19.8564 17.8452 19.5814 18.0408 19.3126C18.6275 18.4998 19.1958 17.6809 19.5808 16.7459C19.6908 16.4709 19.7886 16.1714 19.7947 15.8781C19.8069 14.3687 18.5358 13.1159 17.008 13.1037H16.9958Z" fill="#3D9CFC"/>
<path d="M18.0775 5.604C18.0775 5.88511 17.9491 6.09289 17.7536 6.28233C15.8286 8.21344 13.9036 10.1384 11.9725 12.0696C9.89468 14.1534 7.81079 16.2373 5.73913 18.3212C5.51302 18.5473 5.26246 18.6818 4.93857 18.6268C4.60857 18.5718 4.39468 18.3823 4.29079 18.0707C4.1869 17.7712 4.23579 17.4901 4.44968 17.2518C4.49246 17.2029 4.53524 17.1601 4.57802 17.1173C8.57468 13.1146 12.5713 9.11178 16.5619 5.10289C16.8063 4.85844 17.0691 4.71178 17.4236 4.79122C17.8086 4.87678 18.0775 5.20678 18.0836 5.604H18.0775Z" fill="#3D9CFC"/>
<path d="M9.58252 8.6527C8.87974 8.64048 8.27474 8.38992 7.77974 7.88881C6.9364 7.03937 6.09307 6.18992 5.25585 5.34048C4.9014 4.97992 4.89529 4.45437 5.23752 4.12437C5.57974 3.79437 6.08085 3.80659 6.43529 4.16103C7.24807 4.97992 8.06085 5.79881 8.87363 6.6177C9.34418 7.09437 9.7964 7.10048 10.267 6.62381C11.092 5.79881 11.9108 4.9677 12.742 4.1427C13.1758 3.71492 13.8664 3.83103 14.1047 4.37492C14.2514 4.70492 14.2086 5.02881 13.952 5.29159C13.0475 6.20826 12.1431 7.11881 11.2203 8.01715C10.7681 8.45715 10.1997 8.63437 9.5764 8.6527H9.58252Z" fill="#3D9CFC"/>
<path d="M7.34546 10.8781C7.33324 11.5381 7.11324 12.1248 6.64268 12.6076C6.0499 13.2187 5.45102 13.8298 4.84602 14.4287C4.49157 14.7892 3.98435 14.7953 3.64824 14.4653C3.30602 14.1292 3.31213 13.6098 3.66657 13.2492C4.22879 12.6748 4.79713 12.1003 5.35935 11.5259C5.78102 11.092 5.78102 10.6276 5.35935 10.1998C4.79102 9.62534 4.21657 9.0509 3.64824 8.47034C3.40379 8.2259 3.33046 7.92645 3.44046 7.60256C3.55046 7.28479 3.78268 7.09534 4.11268 7.04645C4.37546 7.00367 4.61379 7.08312 4.80324 7.27256C5.43879 7.90812 6.07435 8.53145 6.69157 9.18534C7.13157 9.64979 7.33324 10.2242 7.33935 10.8842L7.34546 10.8781Z" fill="#3D9CFC"/>
<path d="M16.9896 14.7969C17.5885 14.7969 18.0346 15.2553 18.0285 15.8542C18.0285 16.4469 17.558 16.8992 16.9652 16.893C16.403 16.8869 15.9324 16.398 15.9385 15.8297C15.9446 15.2553 16.4152 14.7908 16.9896 14.7969Z" fill="#3D9CFC"/>
</g>
<defs>
<clipPath id="clip0_2747_900">
<rect width="22" height="22" fill="white" transform="translate(0 0.53125)"/>
</clipPath>
</defs>
</svg>
