<svg width="60" height="60" viewBox="0 0 60 60" fill="none" xmlns="http://www.w3.org/2000/svg">
<path d="M30.8004 0C31.4087 0.0760765 32.017 0.152153 32.6254 0.228233C33.2337 0.30431 33.842 0.418427 34.4503 0.570583C36.9597 1.06509 39.355 1.93999 41.6362 3.19528C43.9174 4.45057 45.98 5.99115 47.824 7.81702C49.668 9.64289 51.2173 11.678 52.472 13.9223C53.7647 16.2046 54.6772 18.6011 55.2094 21.1117C55.2475 21.2638 55.2855 21.435 55.3235 21.6252C55.3615 21.8154 55.3995 21.9866 55.4376 22.1387C55.5516 22.8234 55.4376 23.4225 55.0954 23.9361C54.7532 24.4496 54.2779 24.7824 53.6696 24.9346C53.0233 25.0487 52.453 24.9251 51.9587 24.5637C51.4644 24.2023 51.1223 23.6983 50.9322 23.0516C50.7421 22.2909 50.5615 21.5301 50.3904 20.7693C50.2193 20.0085 49.9816 19.2858 49.6775 18.6011C48.8791 16.6991 47.9095 14.9684 46.7689 13.4088C45.6663 11.8872 44.4022 10.5463 42.9764 9.38613C41.5506 8.22594 39.9633 7.26545 38.2144 6.50467C36.4654 5.74389 34.5644 5.21135 32.5113 4.90703C30.8004 4.60272 29.1085 4.4886 27.4356 4.56468C25.8007 4.64076 24.2039 4.89752 22.645 5.33497C21.0862 5.77242 19.5844 6.39056 18.1396 7.18937C16.6949 7.98819 15.3071 8.97721 13.9764 10.1564C12.1514 11.716 10.6781 13.4943 9.55654 15.4914C8.43494 17.4884 7.62701 19.6662 7.13274 22.0246C6.52442 24.9536 6.41986 27.8065 6.81908 30.5834C7.21829 33.3602 8.1783 36.061 9.69911 38.6857C11.0678 41.0061 12.7693 42.9461 14.8033 44.5057C16.8374 46.0653 19.1282 47.2825 21.6755 48.1574C22.2458 48.3096 22.8066 48.4522 23.3579 48.5853C23.9092 48.7185 24.47 48.8611 25.0403 49.0133C25.7247 49.2415 26.2189 49.6504 26.5231 50.24C26.8273 50.8296 26.8463 51.4668 26.5801 52.1515C26.39 52.608 26.0669 52.9598 25.6106 53.2071C25.1544 53.4543 24.6981 53.5399 24.2419 53.4638C22.1127 53.0074 20.0501 52.3607 18.0541 51.5239C16.058 50.687 14.1855 49.6029 12.4366 48.2715C11.0678 47.2445 9.83219 46.1223 8.7296 44.9051C7.66503 43.7259 6.71452 42.4611 5.87807 41.1107C5.04163 39.7603 4.33825 38.3243 3.76794 36.8028C3.19764 35.2812 2.76041 33.6836 2.45624 32.0098C2.34218 31.4773 2.25664 30.9352 2.19961 30.3837C2.14258 29.8321 2.07604 29.29 2 28.7575V25.2769C2.07604 24.7444 2.14258 24.2118 2.19961 23.6793C2.25664 23.1467 2.34218 22.6332 2.45624 22.1387C2.95051 19.2477 3.84399 16.585 5.13668 14.1505C6.42937 11.678 8.03573 9.50024 9.95575 7.61731C11.8758 5.73438 14.0715 4.18429 16.5428 2.96704C19.0141 1.71175 21.6755 0.855877 24.527 0.39941C25.0973 0.32333 25.6677 0.256763 26.238 0.199703C26.8083 0.142647 27.3786 0.0760765 27.9489 0H30.8004ZM60 35.6616C59.8099 35.9659 59.6198 36.2607 59.4297 36.546C59.2396 36.8313 59.0305 37.088 58.8024 37.3163C57.4716 38.6857 56.1314 40.0456 54.7817 41.396C53.432 42.7464 52.0918 44.1062 50.7611 45.4757C49.4304 46.807 47.9666 47.4632 46.3697 47.4442C44.7729 47.4252 43.3281 46.75 42.0354 45.4186C41.5411 44.9241 41.0469 44.4296 40.5526 43.9351C40.0583 43.4406 39.5831 42.9461 39.1268 42.4515C38.7847 42.1092 38.566 41.7383 38.471 41.3389C38.3759 40.9395 38.4235 40.5116 38.6136 40.0551C38.7656 39.6367 39.0033 39.3038 39.3265 39.0566C39.6496 38.8093 40.0393 38.6476 40.4956 38.5716C40.8758 38.5335 41.2275 38.5811 41.5506 38.7142C41.8738 38.8474 42.1685 39.0471 42.4346 39.3133C42.9289 39.8459 43.4136 40.3594 43.8889 40.8539C44.3641 41.3484 44.8489 41.8429 45.3432 42.3374C45.7234 42.7178 46.0751 42.908 46.3982 42.908C46.7214 42.908 47.0731 42.7178 47.4533 42.3374C48.8981 40.8919 50.3333 39.4465 51.7591 38.001C53.1849 36.5555 54.6011 35.11 56.0079 33.6645C56.5782 33.132 57.215 32.8847 57.9184 32.9228C58.6218 32.9608 59.1826 33.2841 59.6008 33.8928C59.6768 34.0069 59.7434 34.1305 59.8004 34.2636C59.8574 34.3968 59.924 34.5394 60 34.6916V35.6616ZM44.6588 27.3881C45.8374 27.4261 46.959 27.5783 48.0236 27.8446C49.0882 28.1108 50.1147 28.4722 51.1032 28.9287L50.9892 28.8716C51.5975 29.1379 52.0157 29.5658 52.2439 30.1554C52.472 30.745 52.453 31.3442 52.1868 31.9528C51.9207 32.5234 51.493 32.9038 50.9036 33.0939C50.3143 33.2841 49.6965 33.2461 49.0501 32.9798C46.959 32.0669 44.9535 31.7626 43.0334 32.0669C41.1134 32.3712 39.3169 33.2651 37.6441 34.7486C35.8571 36.2322 34.707 37.9439 34.1937 39.8839C33.6804 41.8239 33.766 43.878 34.4503 46.0462C35.0967 48.2145 36.1898 49.8977 37.7296 51.0959C39.2694 52.2941 41.1229 53.0454 43.2901 53.3497C45.8374 53.7301 48.1377 53.3117 50.1908 52.0944C52.2439 50.8772 53.7647 49.0703 54.7532 46.6739C54.9433 46.1794 55.1999 45.7705 55.5231 45.4471C55.8463 45.1238 56.293 44.9621 56.8633 44.9621C57.6617 44.9241 58.3081 45.2189 58.8024 45.8465C59.2966 46.4742 59.3917 47.1684 59.0875 47.9292C58.061 50.8201 56.4261 53.1405 54.1829 54.8903C51.9397 56.6401 49.3923 57.6481 46.5408 57.9144C44.1075 58.1426 41.8358 57.9144 39.7257 57.2297C37.6155 56.545 35.667 55.3468 33.88 53.635C32.0931 51.9233 30.8479 49.9833 30.1445 47.8151C29.4412 45.6468 29.2416 43.3455 29.5457 40.911C29.7358 39.2753 30.154 37.7347 30.8004 36.2892C31.4848 34.8437 32.3402 33.5599 33.3668 32.4378C34.3933 31.3156 35.591 30.3551 36.9597 29.5563C38.3284 28.7575 39.8302 28.1679 41.4651 27.7875C41.9974 27.6734 42.5297 27.5878 43.0619 27.5307C43.5942 27.4737 44.1265 27.4261 44.6588 27.3881ZM31.0855 18.2017C31.0855 19.1526 31.0855 20.0846 31.0855 20.9975C31.0855 21.9105 31.0855 22.8234 31.0855 23.7364C31.0855 23.7744 31.0855 23.7934 31.0855 23.7934C31.0855 23.7934 31.0855 23.8124 31.0855 23.8505C31.0855 24.0026 31.1141 24.1548 31.1711 24.3069C31.2281 24.4591 31.3137 24.5922 31.4277 24.7063C31.846 25.2389 32.1026 25.7905 32.1976 26.361C32.2927 26.9316 32.2071 27.5403 31.941 28.1869C31.6749 28.7955 31.3137 29.271 30.8574 29.6134C30.4012 29.9557 29.8309 30.184 29.1465 30.2981C28.9944 30.2981 28.8519 30.3361 28.7188 30.4122C28.5857 30.4883 28.4812 30.5644 28.4051 30.6404C27.3786 31.6294 26.352 32.628 25.3255 33.636C24.2989 34.644 23.2724 35.6616 22.2458 36.6886C21.7135 37.2212 21.1052 37.4684 20.4208 37.4304C19.7365 37.3924 19.1852 37.1071 18.767 36.5745C18.3868 36.08 18.2157 35.557 18.2537 35.0054C18.2917 34.4538 18.5388 33.9498 18.9951 33.4934C19.9456 32.5424 20.9056 31.5914 21.8751 30.6404C22.8446 29.6895 23.8237 28.7195 24.8122 27.7304L25.0403 27.5593C25.1544 27.4452 25.2494 27.312 25.3255 27.1599C25.4015 27.0077 25.4395 26.8365 25.4395 26.6463C25.4395 26.2659 25.5156 25.9141 25.6677 25.5908C25.8197 25.2674 26.0098 24.9536 26.238 24.6493C26.314 24.5352 26.3805 24.4115 26.4376 24.2784C26.4946 24.1453 26.5231 24.0026 26.5231 23.8505C26.5611 21.9485 26.5706 20.0561 26.5516 18.1731C26.5326 16.2902 26.5421 14.3978 26.5801 12.4958C26.5801 11.9252 26.7227 11.4307 27.0079 11.0123C27.293 10.5939 27.6827 10.3276 28.177 10.2135C28.9374 9.98524 29.6123 10.0994 30.2016 10.5558C30.7909 11.0123 31.0855 11.659 31.0855 12.4958C31.0855 13.4468 31.0855 14.3978 31.0855 15.3487C31.0855 16.2997 31.0855 17.2507 31.0855 18.2017Z" fill="#3D9CFC"/>
</svg>
