<svg width="46" height="46" viewBox="0 0 46 46" fill="none" xmlns="http://www.w3.org/2000/svg">
<g clip-path="url(#clip0_2747_648)">
<path d="M0 21.7049C0.112086 21.1973 0.200858 20.6834 0.341637 20.1829C1.42304 16.3313 4.8986 13.6648 8.88975 13.6378C11.3251 13.6207 13.7614 13.6207 16.1968 13.6378C21.1116 13.6719 25.0785 17.6305 25.1018 22.5485C25.1243 27.3758 25.1251 32.2031 25.1018 37.0295C25.0803 41.5127 21.7402 45.252 17.2872 45.8396C17.202 45.8513 17.1204 45.8917 17.0379 45.9187H8.07018C7.98678 45.8917 7.90608 45.8531 7.8209 45.8396C4.00819 45.208 1.5145 43.0473 0.344327 39.3691C0.186511 38.8749 0.112982 38.3547 0 37.8471C0 32.4664 0 27.0856 0 21.7049ZM21.5205 29.8214C21.5205 27.4459 21.525 25.0704 21.5196 22.695C21.5124 19.5873 19.1496 17.228 16.039 17.2217C13.7238 17.2172 11.4085 17.2181 9.0933 17.2217C5.954 17.2271 3.59123 19.5819 3.58854 22.7156C3.58495 27.4216 3.58495 32.1276 3.58854 36.8337C3.59123 39.9674 5.9522 42.324 9.0915 42.3303C11.3915 42.3348 13.6924 42.3339 15.9924 42.3303C19.1631 42.3258 21.5151 39.9773 21.5196 36.8121C21.5232 34.4816 21.5196 32.151 21.5196 29.8205L21.5205 29.8214Z" fill="white"/>
<path d="M45.9099 31.3906C45.8265 31.7823 45.7521 32.1759 45.6588 32.5649C44.6958 36.5872 41.1494 39.4272 37.022 39.4577C34.4377 39.4766 31.8526 39.4649 29.2674 39.4613C28.1726 39.4595 27.3691 38.7039 27.3584 37.6851C27.3476 36.6528 28.1645 35.8783 29.28 35.8765C31.7754 35.8729 34.27 35.8765 36.7655 35.8747C39.9891 35.8711 42.3223 33.5289 42.3232 30.2954C42.325 23.2571 42.325 16.2187 42.3232 9.18125C42.3232 5.92082 39.9927 3.59207 36.7323 3.59117C32.0857 3.58937 27.4391 3.58937 22.7924 3.59117C19.6271 3.59207 17.3289 5.81211 17.216 8.97191C17.1792 9.99973 16.4062 10.7679 15.4145 10.7634C14.4075 10.7589 13.6373 9.9584 13.631 8.90992C13.605 4.4941 17.0797 0.581405 21.4752 0.0836706C21.8599 0.0396472 22.2491 0.00730345 22.6364 0.00640502C27.388 0.00101439 32.1386 -0.00437623 36.8901 0.00550658C41.1521 0.014491 44.7075 2.84457 45.6857 6.98637C45.7709 7.34664 45.8364 7.71141 45.9117 8.07437V31.3906H45.9099Z" fill="white"/>
<path d="M29.9991 17.9588C29.0557 17.9013 28.515 17.5977 28.1887 16.9777C27.8623 16.3587 27.9062 15.7388 28.2846 15.1503C28.3644 15.0263 28.4666 14.9131 28.5715 14.808C30.9155 12.4604 33.2594 10.1137 35.6078 7.77056C36.2149 7.16591 36.943 7.01946 37.6577 7.33032C38.3382 7.62681 38.8162 8.30782 38.7131 9.03915C38.6539 9.45692 38.4772 9.93759 38.1912 10.2305C35.8302 12.6446 33.4414 15.0317 31.0302 17.3964C30.7128 17.7073 30.2223 17.8411 29.9982 17.9588H29.9991Z" fill="white"/>
<path d="M33.3111 25.1111C32.1768 25.1111 31.0425 25.1138 29.9082 25.1111C28.7811 25.1075 27.9776 24.3573 27.9785 23.3169C27.9785 22.2766 28.7819 21.5264 29.91 21.5255C32.2082 21.5228 34.5073 21.5228 36.8055 21.5255C37.9335 21.5273 38.7361 22.2766 38.7361 23.3178C38.7361 24.3582 37.9326 25.1066 36.8046 25.1102C35.6407 25.1138 34.4759 25.1102 33.312 25.1102L33.3111 25.1111Z" fill="white"/>
<path d="M33.312 32.2908C32.1777 32.2908 31.0434 32.2935 29.9091 32.2908C28.7819 32.2872 27.9785 31.537 27.9785 30.4975C27.9785 29.4562 28.7819 28.7069 29.9091 28.7051C32.2073 28.7025 34.5064 28.7025 36.8046 28.7051C37.9326 28.7069 38.7352 29.4553 38.7352 30.4975C38.7352 31.5379 37.9326 32.2872 36.8046 32.2908C35.6407 32.2944 34.4759 32.2908 33.312 32.2908Z" fill="white"/>
<path d="M31.5617 8.97477C31.5599 9.96035 30.752 10.7654 29.7665 10.7645C28.7802 10.7627 27.9767 9.95586 27.9785 8.96848C27.9803 7.9811 28.7864 7.17789 29.7737 7.17969C30.76 7.18149 31.5635 7.98828 31.5626 8.97477H31.5617Z" fill="white"/>
<path d="M38.7355 16.1593C38.7283 17.144 37.9141 17.9445 36.9278 17.9364C35.9423 17.9283 35.1442 17.1152 35.1514 16.1278C35.1595 15.1414 35.9701 14.3435 36.9591 14.3516C37.9455 14.3597 38.7426 15.171 38.7355 16.1593Z" fill="white"/>
<path d="M12.5487 24.3963C11.3991 24.3963 10.2504 24.399 9.10089 24.3963C7.97555 24.3927 7.17212 23.6389 7.17481 22.5985C7.1775 21.5581 7.98004 20.8115 9.10986 20.8106C11.4081 20.8079 13.7072 20.8079 16.0054 20.8106C17.1316 20.8124 17.9341 21.5653 17.9324 22.6066C17.9306 23.647 17.128 24.3927 15.9973 24.3954C14.8478 24.399 13.6991 24.3954 12.5495 24.3954L12.5487 24.3963Z" fill="white"/>
<path d="M8.97267 31.5691C7.98631 31.5727 7.1775 30.7686 7.17481 29.7831C7.17212 28.7948 7.97286 27.988 8.96011 27.9844C9.94737 27.9817 10.7553 28.7831 10.7589 29.7696C10.7625 30.7561 9.95902 31.5656 8.97356 31.5691H8.97267Z" fill="white"/>
<path d="M16.1357 27.9844C17.1229 27.9826 17.9299 28.7849 17.9317 29.7723C17.9344 30.7588 17.1301 31.5673 16.1437 31.5691C15.1574 31.5709 14.3495 30.7668 14.3477 29.7804C14.3459 28.7921 15.1475 27.9862 16.1348 27.9844H16.1357Z" fill="white"/>
<path d="M8.9611 38.7449C7.97474 38.7422 7.17221 37.9336 7.17579 36.9463C7.17938 35.9589 7.9864 35.1575 8.97365 35.1602C9.96 35.1638 10.7625 35.9706 10.759 36.9588C10.7563 37.9444 9.94655 38.7485 8.9611 38.7449Z" fill="white"/>
<path d="M16.1295 35.1602C17.1167 35.1548 17.9264 35.9553 17.9318 36.9418C17.9372 37.9292 17.1364 38.7396 16.151 38.7449C15.1646 38.7503 14.3531 37.9489 14.3487 36.9633C14.3442 35.9742 15.1422 35.1656 16.1295 35.1602Z" fill="white"/>
</g>
<defs>
<clipPath id="clip0_2747_648">
<rect width="46" height="46" fill="white"/>
</clipPath>
</defs>
</svg>
