<svg width="37" height="37" viewBox="0 0 37 37" fill="none" xmlns="http://www.w3.org/2000/svg">
<path d="M21.6596 9.2487C23.1654 9.54249 24.5492 10.2789 25.6341 11.3638C26.7189 12.4486 27.4554 13.8325 27.7492 15.3383M21.6596 3.08203C24.788 3.42958 27.7054 4.83055 29.9325 7.05492C32.1597 9.27928 33.5643 12.1948 33.9158 15.3229M15.7657 21.3709C13.9133 19.5185 12.4506 17.4239 11.3776 15.1891C11.2853 14.9969 11.2392 14.9007 11.2037 14.7791C11.0777 14.3469 11.1682 13.8162 11.4303 13.4501C11.5041 13.3471 11.5922 13.259 11.7684 13.0828C12.3074 12.5438 12.5769 12.2743 12.7531 12.0033C13.4175 10.9814 13.4175 9.6639 12.7531 8.64195C12.5769 8.37096 12.3074 8.10147 11.7684 7.56249L11.468 7.26207C10.6487 6.44276 10.239 6.03311 9.79907 5.81058C8.92408 5.36801 7.89075 5.36801 7.01576 5.81058C6.5758 6.03311 6.16615 6.44276 5.34684 7.26207L5.10382 7.50509C4.28732 8.32159 3.87907 8.72984 3.56727 9.28489C3.22129 9.9008 2.97252 10.8574 2.97462 11.5638C2.97652 12.2004 3.10001 12.6355 3.347 13.5057C4.67432 18.1822 7.17872 22.595 10.8602 26.2765C14.5417 29.9579 18.9545 32.4623 23.631 33.7897C24.5011 34.0367 24.9362 34.1602 25.5729 34.1621C26.2793 34.1642 27.2359 33.9154 27.8518 33.5694C28.4068 33.2576 28.8151 32.8494 29.6316 32.0329L29.8746 31.7898C30.6939 30.9705 31.1036 30.5609 31.3261 30.1209C31.7687 29.2459 31.7687 28.2126 31.3261 27.3376C31.1036 26.8976 30.6939 26.488 29.8746 25.6687L29.5742 25.3683C29.0352 24.8293 28.7657 24.5598 28.4947 24.3836C27.4728 23.7192 26.1553 23.7192 25.1333 24.3836C24.8623 24.5598 24.5929 24.8293 24.0539 25.3683C23.8776 25.5445 23.7895 25.6326 23.6865 25.7064C23.3205 25.9685 22.7898 26.059 22.3576 25.933C22.2359 25.8975 22.1398 25.8514 21.9476 25.7591C19.7128 24.6861 17.6182 23.2234 15.7657 21.3709Z" stroke="white" stroke-width="3.08333" stroke-linecap="round" stroke-linejoin="round"/>
</svg>
