<svg width="31" height="28" viewBox="0 0 31 28" fill="none" xmlns="http://www.w3.org/2000/svg">
<g opacity="0.05" clip-path="url(#clip0_148_1723)">
<path fill-rule="evenodd" clip-rule="evenodd" d="M29.7326 15.1274C26.0599 24.243 19.3748 27.6655 19.3748 27.6655L17.3609 25.3894C17.3609 25.3894 20.5468 23.7412 21.9516 20.4582C23.68 17.2102 23.4026 14.8442 23.4026 14.8442C23.4026 14.8442 20.0954 14.8991 17.7769 12.7194C15.031 9.0121 16.7855 4.58756 16.7855 4.58756C16.7855 4.58756 18.6275 0.540484 23.5712 0.558791C27.4 0.215253 29.7326 3.73033 29.7326 3.73033C29.7326 3.73033 32.428 7.29871 29.7326 15.1274ZM3.55066 27.6655L1.53675 25.3894C1.53675 25.3894 4.72213 23.7412 6.12638 20.4582C7.85531 17.2102 7.57849 14.8442 7.57849 14.8442C7.57849 14.8442 4.27127 14.8991 1.9528 12.7194C-0.793147 9.0121 0.961344 4.58756 0.961344 4.58756C0.961344 4.58756 2.8034 0.540484 7.74654 0.558791C11.5753 0.215253 13.9085 3.73033 13.9085 3.73033C13.9085 3.73033 16.6033 7.29871 13.9085 15.1274C10.2352 24.243 3.55066 27.6655 3.55066 27.6655Z" fill="#464451"/>
</g>
<defs>
<clipPath id="clip0_148_1723">
<rect width="31" height="28" fill="white"/>
</clipPath>
</defs>
</svg>
