<svg width="40" height="40" viewBox="0 0 40 40" fill="none" xmlns="http://www.w3.org/2000/svg">
<path d="M35.2344 20.4277C35.2083 20.1673 35.1888 19.9199 35.1758 19.6855C35.1628 19.4512 35.1562 19.2038 35.1562 18.9434C35.1562 18.9173 35.1497 18.8913 35.1367 18.8652C35.1237 18.8392 35.1172 18.8132 35.1172 18.7871C35.1172 18.2923 35.293 17.8626 35.6445 17.498C35.9961 17.1335 36.4193 16.9382 36.9141 16.9121C37.4349 16.8861 37.8841 17.0423 38.2617 17.3809C38.6393 17.7194 38.8542 18.1491 38.9062 18.6699C39.1667 21.1178 38.9844 23.4616 38.3594 25.7012C37.7344 27.9668 36.7643 30.0176 35.4492 31.8535C34.1341 33.6895 32.5 35.2454 30.5469 36.5215C28.5937 37.7975 26.4062 38.696 23.9844 39.2168C22.2135 39.5814 20.4948 39.7376 18.8281 39.6855C17.1615 39.6074 15.5664 39.3145 14.043 38.8066C12.5195 38.2988 11.0677 37.5762 9.6875 36.6387C8.30729 35.7012 7.00521 34.5553 5.78125 33.2012C4.92187 32.2376 4.16667 31.222 3.51562 30.1543C2.89062 29.1126 2.38281 28.0189 1.99219 26.873C1.60156 25.7272 1.32812 24.5423 1.17187 23.3184C1.01563 22.0944 0.989583 20.8444 1.09375 19.5684C1.22396 17.7194 1.5625 16.0007 2.10937 14.4121C2.63021 12.8236 3.34635 11.3587 4.25781 10.0176C5.16927 8.67644 6.26302 7.47201 7.53906 6.4043C8.8151 5.33659 10.2865 4.39909 11.9531 3.5918C13.3073 2.94076 14.6745 2.45899 16.0547 2.14649C17.4089 1.83399 18.776 1.68425 20.1562 1.69727C21.5365 1.71029 22.9036 1.88607 24.2578 2.22461C25.638 2.56316 27.0052 3.04493 28.3594 3.66993C28.75 3.85222 29.0495 4.11263 29.2578 4.45118C29.4661 4.78972 29.5573 5.1543 29.5312 5.54493C29.5052 5.96159 29.3685 6.31966 29.1211 6.61914C28.8737 6.91862 28.5547 7.12045 28.1641 7.22461C27.9036 7.30274 27.6497 7.32227 27.4023 7.28321C27.1549 7.24414 26.901 7.17253 26.6406 7.06836C25.7812 6.62565 24.8503 6.27409 23.8477 6.01368C22.845 5.75326 21.8099 5.59701 20.7422 5.54493H20.7031C19.1146 5.4668 17.5651 5.63607 16.0547 6.05274C14.5443 6.46941 13.138 7.0944 11.8359 7.92774C10.5339 8.76107 9.375 9.7767 8.35937 10.9746C7.34375 12.1725 6.54948 13.5007 5.97656 14.959C5.11719 17.0944 4.73958 19.2428 4.84375 21.4043C4.97396 23.5658 5.49479 25.571 6.40625 27.4199C7.31771 29.2689 8.60677 30.8965 10.2734 32.3027C11.9141 33.709 13.8411 34.7246 16.0547 35.3496C18.1901 35.9486 20.3125 36.0658 22.4219 35.7012C24.5052 35.3366 26.4193 34.6009 28.1641 33.4941C29.9088 32.3874 31.3932 30.9616 32.6172 29.2168C33.8411 27.446 34.6354 25.4668 35 23.2793C35.0781 22.8105 35.1367 22.3353 35.1758 21.8535C35.2148 21.3717 35.2604 20.8965 35.3125 20.4277C35.2865 20.4277 35.2669 20.4277 35.2539 20.4277C35.2409 20.4277 35.2344 20.4277 35.2344 20.4277ZM20 21.9512C20.1042 21.821 20.1888 21.7168 20.2539 21.6387C20.319 21.5605 20.3776 21.4954 20.4297 21.4434C21.7057 20.1673 22.9687 18.9043 24.2187 17.6543C25.4948 16.3783 26.7643 15.1087 28.0273 13.8457C29.2904 12.5827 30.5599 11.3132 31.8359 10.0371C33.0859 8.78711 34.349 7.52409 35.625 6.24805C35.8594 6.01368 36.1133 5.83138 36.3867 5.70118C36.6602 5.57097 36.9661 5.51888 37.3047 5.54493C37.6953 5.59701 38.0273 5.72722 38.3008 5.93555C38.5742 6.14388 38.776 6.43034 38.9062 6.79493C38.9583 6.89909 38.9909 7.00977 39.0039 7.12696C39.0169 7.24414 39.0234 7.35482 39.0234 7.45899C39.0234 7.7194 38.9779 7.96029 38.8867 8.18164C38.7956 8.403 38.6588 8.60482 38.4766 8.78711C37.9557 9.30795 37.4349 9.82878 36.9141 10.3496C36.3932 10.8704 35.8594 11.3913 35.3125 11.9121C34.1927 13.0579 33.0599 14.1908 31.9141 15.3105C30.7682 16.4564 29.6224 17.6022 28.4766 18.748C27.3307 19.8939 26.1979 21.0267 25.0781 22.1465C23.9323 23.2923 22.7865 24.4382 21.6406 25.584C21.0937 26.1309 20.5599 26.4043 20.0391 26.4043C19.5182 26.4043 18.9844 26.1309 18.4375 25.584L13.0469 20.1934C12.7604 19.9069 12.5716 19.5944 12.4805 19.2559C12.3893 18.9173 12.4219 18.5527 12.5781 18.1621C12.7083 17.7975 12.9102 17.5111 13.1836 17.3027C13.457 17.0944 13.776 16.9642 14.1406 16.9121C14.4792 16.8861 14.7786 16.9316 15.0391 17.0488C15.2995 17.166 15.5339 17.3288 15.7422 17.5371C16.3932 18.1882 17.0443 18.8392 17.6953 19.4902C18.3464 20.1413 18.9974 20.7923 19.6484 21.4434C19.7005 21.4954 19.7526 21.5605 19.8047 21.6387C19.8568 21.7168 19.9219 21.821 20 21.9512Z" fill="#3D9CFC"/>
</svg>
