<svg width="35" height="36" viewBox="0 0 35 36" fill="none" xmlns="http://www.w3.org/2000/svg">
<g clip-path="url(#clip0_2747_815)">
<path d="M17.748 35.942H3.82939C3.78974 35.9209 3.75146 35.895 3.70976 35.8795C3.01728 35.6171 2.63242 34.9806 2.75615 34.3013C2.8833 33.6009 3.43633 33.1413 4.17119 33.1406C8.01367 33.1385 11.8568 33.1392 15.6993 33.1392C15.8306 33.1392 15.9618 33.1392 16.0937 33.1392V30.6171C15.9447 30.6171 15.8114 30.6171 15.6781 30.6171C12.2444 30.6171 8.81074 30.6297 5.37773 30.6115C2.70078 30.5967 0.378611 28.502 0.0826144 25.7743C-0.041116 24.6318 0.0169894 23.4676 0.0142551 22.3125C0.0128879 21.9181 0.0402316 21.516 0.117478 21.1308C0.654782 18.4459 2.84775 16.6115 5.51924 16.6073C8.90713 16.6017 12.295 16.6059 15.6836 16.6059C15.8162 16.6059 15.9488 16.6059 16.0876 16.6059V14.0838C15.9304 14.0838 15.795 14.0838 15.6603 14.0838C12.2267 14.0838 8.79297 14.0978 5.35996 14.0774C2.7042 14.062 0.369724 11.9553 0.0853488 9.25779C-0.0404324 8.06902 0.00878631 6.85779 0.0128879 5.65709C0.0238254 2.57639 2.43828 0.0816501 5.43447 0.0774396C13.4612 0.0669132 21.488 0.0690185 29.5147 0.0774396C31.9839 0.0795448 34.1133 1.78762 34.7531 4.23954C34.8228 4.50691 34.8789 4.77849 34.9418 5.04797V9.11112C34.9233 9.15253 34.8953 9.19182 34.8878 9.23463C34.4024 12.1848 32.219 14.0838 29.3076 14.0852C25.9532 14.0866 22.5988 14.0852 19.2437 14.0852H18.8589V16.6073C19.0113 16.6073 19.1453 16.6073 19.2793 16.6073C22.6904 16.6073 26.1022 16.5995 29.5134 16.6101C31.9832 16.6178 34.1133 18.3202 34.7531 20.7729C34.8228 21.0402 34.8789 21.3118 34.9418 21.5813V25.6445C34.9233 25.6859 34.8953 25.7252 34.8878 25.768C34.4024 28.716 32.219 30.6171 29.3124 30.6185C25.9601 30.6199 22.607 30.6185 19.2547 30.6185H18.8397C18.8397 31.8424 18.8131 33.0199 18.8486 34.196C18.8746 35.0662 18.5636 35.6578 17.748 35.9427V35.942ZM17.4404 11.2824C21.4196 11.2824 25.3988 11.2845 29.378 11.2809C31.0364 11.2795 32.2047 10.0725 32.2115 8.36586C32.2149 7.49007 32.217 6.61498 32.2115 5.73919C32.2006 4.09849 31.0241 2.87884 29.43 2.87744C21.46 2.87323 13.4899 2.87323 5.51992 2.87744C3.92578 2.87814 2.74863 4.09919 2.73906 5.73849C2.73427 6.57919 2.73769 7.4199 2.73838 8.2599C2.73974 10.1083 3.87793 11.2809 5.67373 11.2816C9.59619 11.2824 13.5187 11.2816 17.4411 11.2816L17.4404 11.2824ZM17.4623 27.8157C21.4531 27.8157 25.4439 27.8199 29.4341 27.8136C31.0111 27.8108 32.1958 26.5946 32.2102 24.982C32.2184 24.0718 32.2177 23.1609 32.2102 22.2501C32.1972 20.6325 31.0173 19.4122 29.4416 19.4115C21.46 19.4066 13.479 19.4066 5.49736 19.4115C3.92646 19.4129 2.74931 20.6402 2.73838 22.2592C2.73222 23.0999 2.73701 23.9399 2.73701 24.7806C2.73769 26.6515 3.87109 27.815 5.69424 27.815C9.6167 27.815 13.5392 27.815 17.4616 27.815L17.4623 27.8157Z" fill="#3D9CFC"/>
<path d="M22.3879 35.9442C22.3155 35.9134 22.243 35.8818 22.1705 35.8516C21.558 35.5941 21.1985 34.9435 21.3147 34.3035C21.4398 33.6158 21.9887 33.1456 22.6955 33.1435C24.8441 33.1386 26.9926 33.1414 29.1418 33.1414C29.6764 33.1414 30.2103 33.14 30.7449 33.1414C31.5098 33.1442 32.0635 33.5898 32.1941 34.3021C32.3205 34.9927 31.9336 35.6144 31.2083 35.8895C31.1776 35.9014 31.1502 35.9246 31.1215 35.9428H22.3886L22.3879 35.9442Z" fill="#3D9CFC"/>
<path d="M9.5728 8.47929C8.68686 8.47929 7.80093 8.4821 6.91499 8.47859C6.081 8.47508 5.47397 7.88912 5.46782 7.09052C5.46167 6.27578 6.07212 5.67929 6.92456 5.67789C8.68481 5.67508 10.4451 5.67508 12.2053 5.67789C13.04 5.67929 13.6463 6.26526 13.6525 7.06455C13.6593 7.87859 13.0482 8.47438 12.1958 8.47789C11.3214 8.4814 10.4471 8.47859 9.57212 8.47859L9.5728 8.47929Z" fill="#3D9CFC"/>
<path d="M22.6525 8.47971C21.9026 8.4755 21.2935 7.84252 21.2969 7.07129C21.301 6.30006 21.9162 5.6755 22.6682 5.67971C23.4188 5.68392 24.0272 6.3155 24.0237 7.08743C24.0203 7.85655 23.4024 8.48392 22.6525 8.47971Z" fill="#3D9CFC"/>
<path d="M29.4817 7.08531C29.479 7.85514 28.8631 8.4825 28.1125 8.4804C27.3626 8.47759 26.7522 7.84531 26.7549 7.07408C26.7576 6.30285 27.3722 5.67689 28.1234 5.6797C28.874 5.6825 29.4838 6.31338 29.4817 7.08531Z" fill="#3D9CFC"/>
<path d="M9.54887 25.0147C8.67456 25.0147 7.79956 25.0175 6.92524 25.014C6.0728 25.0105 5.46167 24.4154 5.46782 23.6014C5.47397 22.8021 6.08032 22.2147 6.9143 22.2133C8.67456 22.2098 10.4348 22.2105 12.1951 22.2133C13.0482 22.2147 13.6586 22.8098 13.6525 23.6245C13.647 24.4238 13.0407 25.0098 12.206 25.0133C11.3201 25.0175 10.4341 25.014 9.54819 25.014L9.54887 25.0147Z" fill="#3D9CFC"/>
<path d="M22.6559 22.2109C23.4071 22.2088 24.0217 22.8355 24.0237 23.606C24.0258 24.3766 23.4147 25.0088 22.6647 25.0109C21.9142 25.013 21.2989 24.385 21.2969 23.6152C21.2948 22.8432 21.9046 22.213 22.6559 22.2109Z" fill="#3D9CFC"/>
<path d="M29.4817 23.6166C29.479 24.3864 28.8624 25.0138 28.1125 25.011C27.3626 25.0081 26.7522 24.3759 26.7549 23.6046C26.7576 22.8334 27.3722 22.2074 28.1241 22.211C28.8747 22.2138 29.4845 22.8453 29.4817 23.6166Z" fill="#3D9CFC"/>
</g>
<defs>
<clipPath id="clip0_2747_815">
<rect width="35" height="36" fill="white"/>
</clipPath>
</defs>
</svg>
