<svg width="60" height="60" viewBox="0 0 60 60" fill="none" xmlns="http://www.w3.org/2000/svg">
<path d="M6 26.2988V12.7868C6.15112 12.3327 6.38725 11.9731 6.70838 11.7082C7.02952 11.4432 7.41677 11.2161 7.87013 11.0269C9.68359 10.2699 11.497 9.51295 13.3105 8.75597C15.124 7.999 16.928 7.25149 18.7226 6.51344C20.5171 5.7754 22.3211 5.02789 24.1346 4.27092C25.9481 3.51394 27.7615 2.75697 29.575 2H30.425C30.6139 2.0757 30.7839 2.14193 30.9351 2.1987C31.0862 2.25548 31.2373 2.32171 31.3884 2.39741C33.1263 3.11653 34.8453 3.83566 36.5455 4.55478C38.2834 5.2739 40.0024 5.99303 41.7025 6.71215C43.4026 7.43127 45.1216 8.13147 46.8595 8.81275C48.5596 9.53187 50.2786 10.251 52.0165 10.9701C52.4699 11.1594 52.876 11.3865 53.2349 11.6514C53.5939 11.9163 53.8489 12.2948 54 12.7868V26.2988C53.9622 26.3745 53.9433 26.4502 53.9433 26.5259C53.9433 26.6016 53.9244 26.6773 53.8867 26.753C53.7733 27.5857 53.6789 28.4278 53.6033 29.2794C53.5277 30.131 53.3955 30.9731 53.2066 31.8058C52.4888 34.9851 51.4876 37.9373 50.2031 40.6623C48.9185 43.3496 47.3507 45.8192 45.4994 48.0712C43.6482 50.3232 41.5136 52.3386 39.0956 54.1175C36.6777 55.9343 33.9764 57.4861 30.9917 58.7729C30.6517 58.9243 30.3211 59 30 59C29.6789 59 29.3294 58.9243 28.9516 58.7729C27.5159 58.1673 26.137 57.4861 24.8146 56.7291C23.4923 55.9721 22.2172 55.1394 20.9894 54.2311C19.7615 53.3227 18.5998 52.3386 17.5041 51.2789C16.4085 50.2191 15.3506 49.0837 14.3306 47.8725C13.2349 46.51 12.2338 45.0906 11.327 43.6145C10.4581 42.1384 9.68359 40.615 9.00354 39.0443C8.32349 37.4736 7.77568 35.8556 7.36009 34.1902C6.90673 32.5627 6.56671 30.8596 6.34002 29.0807C6.26446 28.6265 6.19835 28.1628 6.14168 27.6897C6.08501 27.2166 6.03778 26.753 6 26.2988ZM49.693 21.1325H49.523C49.523 20.1863 49.523 19.2211 49.523 18.237C49.523 17.253 49.5419 16.2689 49.5797 15.2849C49.5797 15.0956 49.5419 14.9442 49.4664 14.8307C49.3908 14.7171 49.2586 14.6225 49.0697 14.5468C47.5207 13.9034 45.9717 13.26 44.4227 12.6165C42.8737 11.9731 41.3247 11.3297 39.7757 10.6863C38.2267 10.0428 36.6588 9.3994 35.072 8.75597C33.523 8.11255 31.974 7.46912 30.425 6.8257C30.3495 6.78785 30.2834 6.76892 30.2267 6.76892C30.17 6.76892 30.1039 6.76892 30.0283 6.76892C29.9528 6.76892 29.8772 6.76892 29.8017 6.76892C29.7261 6.76892 29.6505 6.78785 29.575 6.8257H29.6316C28.0449 7.46912 26.477 8.11255 24.928 8.75597C23.3412 9.3994 21.7733 10.0523 20.2243 10.7146C18.6753 11.377 17.1074 12.0299 15.5207 12.6733C13.9717 13.3167 12.4227 13.9602 10.8737 14.6036C10.6848 14.6793 10.562 14.7644 10.5053 14.8591C10.4486 14.9537 10.4203 15.0956 10.4203 15.2849C10.4203 16.7988 10.4203 18.3127 10.4203 19.8267C10.4203 21.3406 10.4203 22.8357 10.4203 24.3118C10.4203 25.4094 10.477 26.507 10.5903 27.6046C10.7037 28.7022 10.8737 29.7809 11.1004 30.8406C11.7048 33.5657 12.536 36.0827 13.5939 38.3914C14.6895 40.7002 16.0024 42.8292 17.5325 44.7784C19.0626 46.7276 20.8477 48.4781 22.8878 50.0299C24.8902 51.6195 27.1192 53.001 29.575 54.1743C29.6505 54.2122 29.7261 54.2405 29.8017 54.2595C29.8772 54.2784 29.9528 54.2878 30.0283 54.2878C30.1039 54.2878 30.17 54.2784 30.2267 54.2595C30.2834 54.2405 30.3495 54.2122 30.425 54.1743C32.843 53.0388 35.072 51.6668 37.1122 50.0583C39.1523 48.4497 40.9658 46.6424 42.5525 44.6365L42.6092 44.5797C44.4227 42.2331 45.8867 39.7445 47.0012 37.114C48.1157 34.4836 48.843 31.6922 49.183 28.74C49.3719 27.491 49.4852 26.2326 49.523 24.9646C49.5608 23.6967 49.6175 22.4193 49.693 21.1325ZM27.5915 31.9761C27.6671 31.8247 27.7426 31.7017 27.8182 31.6071C27.8937 31.5124 27.9693 31.4273 28.0449 31.3516C29.5183 29.8376 31.0012 28.3332 32.4935 26.8381C33.9858 25.3431 35.4687 23.8576 36.9421 22.3815C37.2822 22.0408 37.6411 21.8043 38.0189 21.6718C38.3967 21.5393 38.8123 21.5488 39.2656 21.7002C39.7568 21.8516 40.1535 22.1165 40.4557 22.495C40.758 22.8735 40.9091 23.3088 40.9091 23.8008C40.9091 24.0657 40.8619 24.3212 40.7674 24.5672C40.673 24.8132 40.5502 25.0309 40.3991 25.2201V25.1633C40.3613 25.2769 40.3046 25.362 40.229 25.4188C40.1535 25.4756 40.0779 25.5418 40.0024 25.6175L29.3483 36.2908C28.7438 36.8964 28.1393 37.1992 27.5348 37.1992C26.9303 37.1992 26.3259 36.8964 25.7214 36.2908C24.7391 35.3068 23.7662 34.3322 22.8028 33.367C21.8394 32.4019 20.8666 31.4273 19.8843 30.4432L19.8276 30.3865C19.4876 30.0458 19.2704 29.6863 19.1759 29.3078C19.0815 28.9293 19.0909 28.5129 19.2043 28.0588C19.3554 27.6424 19.5821 27.3113 19.8843 27.0652C20.1865 26.8192 20.5455 26.6394 20.961 26.5259C21.3766 26.488 21.7544 26.5354 22.0945 26.6678C22.4345 26.8003 22.7367 26.999 23.0012 27.2639C23.6812 27.9452 24.3613 28.6265 25.0413 29.3078C25.7214 29.989 26.4014 30.6703 27.0815 31.3516C27.1192 31.4273 27.1759 31.5124 27.2515 31.6071C27.327 31.7017 27.4404 31.8247 27.5915 31.9761Z" fill="#3D9CFC"/>
</svg>
