<svg width="60" height="60" viewBox="0 0 60 60" fill="none" xmlns="http://www.w3.org/2000/svg">
<g clip-path="url(#clip0_2747_393)">
<path d="M58 16.7996C57.8827 17.3497 57.7752 17.8998 57.6775 18.4499C57.5798 19 57.4527 19.5305 57.2963 20.0413C56.7099 22.0059 55.8401 23.7544 54.6869 25.2868C53.5337 26.8193 52.097 28.1159 50.377 29.1768C49.7515 29.5697 49.3019 30.0118 49.0283 30.5029C48.7546 30.9941 48.6178 31.5933 48.6178 32.3006C48.6569 33.9509 48.6764 35.6012 48.6764 37.2515C48.6764 38.8625 48.6764 40.4931 48.6764 42.1434C48.6764 43.7937 48.6764 45.444 48.6764 47.0943C48.6764 48.7053 48.6764 50.336 48.6764 51.9862C48.6373 53.9509 47.9337 55.611 46.5654 56.9666C45.1972 58.3222 43.5553 59 41.6398 59C39.7243 59 38.0824 58.3222 36.7141 56.9666C35.3459 55.611 34.6618 53.9705 34.6618 52.0452C34.6618 50.3949 34.6618 48.725 34.6618 47.0354C34.6618 45.3851 34.6618 43.7348 34.6618 42.0845C34.6618 40.4342 34.6618 38.7642 34.6618 37.0747C34.6618 35.4244 34.6618 33.7741 34.6618 32.1238C34.6618 31.4951 34.5445 30.9548 34.3099 30.5029C34.0754 30.0511 33.6845 29.6483 33.1372 29.2947C30.518 27.6444 28.5536 25.611 27.244 23.1945C25.9344 20.778 25.2991 18.0177 25.3382 14.9136C25.3382 13.2633 25.6119 11.6523 26.1592 10.0806C26.7065 8.54813 27.459 7.12377 28.4168 5.80746C29.3745 4.49116 30.518 3.3222 31.8471 2.30059C33.1763 1.31827 34.6031 0.552063 36.1278 0.00196457C36.9487 -0.273083 37.6817 -0.184673 38.3267 0.267193C38.9717 0.719059 39.2942 1.39686 39.2942 2.30059C39.2942 3.71513 39.2942 5.11984 39.2942 6.51474C39.2942 7.90963 39.2942 9.2947 39.2942 10.6699C39.3333 11.2593 39.5093 11.7603 39.822 12.1729C40.1347 12.5855 40.5647 12.8507 41.112 12.9686C41.6202 13.1257 42.1187 13.0963 42.6073 12.8802C43.096 12.664 43.4576 12.3006 43.6921 11.7898C43.7703 11.5933 43.8387 11.387 43.8974 11.1709C43.956 10.9548 43.9853 10.7485 43.9853 10.5521C43.9853 9.21611 43.9853 7.87033 43.9853 6.51474C43.9853 5.15914 43.9853 3.81336 43.9853 2.47741C43.9853 1.4558 44.3176 0.709236 44.9822 0.23772C45.6468 -0.233791 46.4677 -0.273083 47.445 0.119843C50.4552 1.37721 52.83 3.13556 54.5696 5.39489C56.3092 7.65422 57.4136 10.4145 57.8827 13.6758C57.8827 13.7151 57.8925 13.7642 57.912 13.8232C57.9316 13.8821 57.9609 13.9312 58 13.9705V16.7996ZM48.6764 6.07269C48.6764 6.93713 48.6764 7.75246 48.6764 8.51867C48.6764 9.28487 48.6569 10.0609 48.6178 10.8468C48.6178 12.7721 47.9337 14.4028 46.5654 15.7387C45.1972 17.0747 43.5553 17.7426 41.6398 17.7426C40.5061 17.7426 39.4604 17.4971 38.5026 17.0059C37.5449 16.5147 36.7532 15.8566 36.1278 15.0314V14.9725C35.6586 14.3831 35.297 13.725 35.0429 12.998C34.7888 12.2711 34.6618 11.5147 34.6618 10.7289C34.6618 10.6896 34.6618 10.6699 34.6618 10.6699C34.6618 10.6699 34.6618 10.6503 34.6618 10.611V6.13163C34.5445 6.17093 34.4565 6.21022 34.3979 6.24951C34.3393 6.2888 34.2904 6.34774 34.2513 6.42633C32.9222 7.52652 31.896 8.78389 31.1728 10.1984C30.4496 11.613 30.0684 13.1847 30.0293 14.9136C29.9511 17.1532 30.3812 19.1473 31.3194 20.8959C32.2576 22.6444 33.6649 24.1081 35.5414 25.2868C36.8314 26.112 37.7892 27.0845 38.4147 28.2043C39.0401 29.3242 39.3529 30.6306 39.3529 32.1238C39.3138 34.2063 39.2942 36.2692 39.2942 38.3124C39.2942 40.3556 39.2942 42.3988 39.2942 44.442C39.2942 45.6994 39.2942 46.947 39.2942 48.1847C39.2942 49.4224 39.2942 50.6699 39.2942 51.9273C39.2942 52.4774 39.4408 52.9489 39.734 53.3418C40.0272 53.7348 40.4084 54.0295 40.8775 54.2259C41.6593 54.501 42.3728 54.3929 43.0178 53.9018C43.6628 53.4106 43.9853 52.7132 43.9853 51.8094C43.9853 50.1591 43.9853 48.5285 43.9853 46.9175C43.9853 45.2672 43.9853 43.6267 43.9853 41.9961C43.9853 40.3654 43.9853 38.725 43.9853 37.0747C43.9853 35.4244 43.9853 33.7937 43.9853 32.1827C43.9462 30.6503 44.2492 29.3143 44.8942 28.1749C45.5393 27.0354 46.5068 26.0727 47.7969 25.2868C50.0251 23.9116 51.6084 22.0157 52.5466 19.5992C53.4848 17.1827 53.5826 14.7171 52.8398 12.2024C52.488 10.9843 51.97 9.86444 51.2859 8.84283C50.6017 7.82122 49.7319 6.89784 48.6764 6.07269ZM2 33.7151C2.23455 33.0079 2.59616 32.5069 3.08482 32.2122C3.57347 31.9175 4.16963 31.7701 4.8733 31.7701C7.88342 31.8094 10.8838 31.8291 13.8743 31.8291C16.8649 31.8291 19.8457 31.8291 22.8168 31.8291C23.325 31.8291 23.7745 31.9371 24.1654 32.1532C24.5564 32.3694 24.8496 32.6935 25.045 33.1257C25.2796 33.558 25.3675 33.9902 25.3089 34.4224C25.2503 34.8546 25.0841 35.2475 24.8105 35.6012C24.615 35.8762 24.3609 36.0923 24.0482 36.2495C23.7354 36.4067 23.3836 36.4853 22.9927 36.4853C22.6017 36.4853 22.2206 36.4853 21.8492 36.4853C21.4778 36.4853 21.0771 36.4853 20.6471 36.4853V37.2515C20.6471 39.7269 20.6471 42.1925 20.6471 44.6483C20.6471 47.1041 20.6471 49.5697 20.6471 52.0452C20.6471 53.9705 19.963 55.611 18.5948 56.9666C17.2265 58.3222 15.5846 59 13.6691 59C11.7536 59 10.1019 58.3222 8.71414 56.9666C7.32635 55.611 6.63246 53.9705 6.63246 52.0452C6.63246 49.5697 6.63246 47.1041 6.63246 44.6483C6.63246 42.1925 6.63246 39.7466 6.63246 37.3104V36.4853C6.31972 36.4853 6.02653 36.4853 5.75288 36.4853C5.47923 36.4853 5.18604 36.4853 4.8733 36.4853C4.16963 36.5639 3.57347 36.446 3.08482 36.1316C2.59616 35.8173 2.23455 35.3261 2 34.6582V33.7151ZM11.3236 36.5442V51.8684C11.3236 52.4185 11.4604 52.8998 11.734 53.3124C12.0077 53.725 12.3986 54.0295 12.9068 54.2259C13.6887 54.4617 14.3923 54.3438 15.0178 53.8723C15.6433 53.4008 15.956 52.7328 15.956 51.8684C15.956 49.3929 15.956 46.9175 15.956 44.442C15.956 41.9666 15.956 39.4715 15.956 36.9568C15.956 36.8782 15.956 36.8094 15.956 36.7505C15.956 36.6916 15.956 36.6228 15.956 36.5442H11.3236ZM16.4251 -1C17.0115 -0.842827 17.4513 -0.557957 17.7445 -0.145382C18.0377 0.267193 18.2625 0.748528 18.4188 1.29863C18.7316 2.75246 19.0736 4.18664 19.445 5.60118C19.8164 7.01572 20.178 8.43026 20.5298 9.8448C20.7644 10.7878 20.6471 11.554 20.178 12.1434C19.7089 12.7328 19.0052 13.0275 18.067 13.0275H15.956V13.6758C15.956 15.5226 15.956 17.3694 15.956 19.2161C15.956 21.0629 15.956 22.89 15.956 24.6974C15.956 25.5619 15.6335 26.2299 14.9885 26.7014C14.3435 27.1729 13.63 27.2711 12.8482 26.9961C12.3791 26.7996 12.0077 26.4951 11.734 26.0825C11.4604 25.6699 11.3236 25.1886 11.3236 24.6385C11.3236 22.831 11.3236 21.0236 11.3236 19.2161C11.3236 17.4086 11.3236 15.5815 11.3236 13.7348V13.0275C10.9326 13.0275 10.5613 13.0275 10.2094 13.0275C9.85759 13.0275 9.52531 13.0275 9.21257 13.0275C8.31344 13.0275 7.62932 12.7426 7.16021 12.1729C6.6911 11.6031 6.55428 10.8664 6.74974 9.96267C7.14066 8.46955 7.52181 6.9666 7.89319 5.45383C8.26457 3.94106 8.62618 2.41847 8.97801 0.886051C9.13438 0.414539 9.36894 0.0216103 9.68168 -0.292728C9.99442 -0.607071 10.3853 -0.842827 10.8545 -1H16.4251ZM15.311 8.31238C15.1155 7.56581 14.9298 6.82908 14.7539 6.10216C14.578 5.37525 14.3923 4.63851 14.1969 3.89194C14.1578 3.85265 14.06 3.81336 13.9037 3.77407C13.7473 3.73478 13.6105 3.71513 13.4932 3.71513C13.4541 3.71513 13.3759 3.7446 13.2586 3.80354C13.1414 3.86248 13.0827 3.91159 13.0827 3.95089C12.9654 4.34381 12.8579 4.72692 12.7602 5.1002C12.6625 5.47348 12.5745 5.85658 12.4963 6.24951C12.4181 6.60315 12.34 6.94696 12.2618 7.28094C12.1836 7.61493 12.0859 7.95874 11.9686 8.31238H15.311Z" fill="#3D9CFC"/>
</g>
<defs>
<clipPath id="clip0_2747_393">
<rect width="60" height="60" fill="white" transform="matrix(1 0 0 -1 0 60)"/>
</clipPath>
</defs>
</svg>
