<svg width="13" height="20" viewBox="0 0 13 20" fill="none" xmlns="http://www.w3.org/2000/svg">
<g clip-path="url(#clip0_2747_50)">
<path d="M8.95683 19.9902H3.50805C3.4739 19.9805 3.43488 19.961 3.40073 19.9561C1.47878 19.7024 0.0104897 18.0732 0.00561166 16.1415C0.000733613 12.0439 0.000733613 7.94634 0.00561166 3.84878C0.0104897 2.21951 1.0739 0.75122 2.61049 0.229268C2.90317 0.131707 3.21049 0.0780488 3.50805 0C5.32268 0 7.1422 0 8.95683 0C8.99098 0.0097561 9.03 0.0292683 9.06415 0.0341463C10.6788 0.24878 11.9715 1.41463 12.352 3.00488C12.391 3.17561 12.4251 3.34634 12.4593 3.5122V16.4732C12.4495 16.5073 12.43 16.5463 12.4251 16.5805C12.191 18.0878 11.3666 19.1415 9.96171 19.7171C9.64464 19.8488 9.29342 19.8976 8.95683 19.9854V19.9902ZM10.9032 10.0146C10.9032 8.00488 10.9032 5.99512 10.9032 3.98537C10.9032 2.58049 9.88854 1.56098 8.48366 1.56098C6.9861 1.56098 5.48854 1.56098 3.99098 1.56098C2.57634 1.56098 1.56171 2.57561 1.56171 3.99024C1.56171 7.99024 1.56171 11.9902 1.56171 15.9951C1.56171 17.4146 2.57634 18.4293 3.9861 18.4293C5.47878 18.4293 6.97147 18.4293 8.45927 18.4293C9.88854 18.4293 10.8983 17.4195 10.8983 15.9902C10.8983 14 10.8983 12.0098 10.8983 10.0195L10.9032 10.0146Z" fill="#3D9CFC"/>
<path d="M6.23778 3.12109C6.49144 3.12109 6.7451 3.12109 6.99388 3.12109C7.44754 3.12597 7.789 3.46744 7.78412 3.91134C7.78412 4.34061 7.44266 4.67719 6.99876 4.68207C6.48656 4.68695 5.97437 4.68695 5.46217 4.68207C5.00851 4.68207 4.66705 4.33085 4.67193 3.89183C4.67193 3.46256 5.01339 3.12597 5.45729 3.12109C5.71583 3.12109 5.97437 3.12109 6.2329 3.12109H6.23778Z" fill="#3D9CFC"/>
<path d="M6.23285 16.8678C5.97919 16.8678 5.72553 16.8678 5.47675 16.8678C5.01822 16.863 4.67675 16.5312 4.67188 16.0922C4.67188 15.6532 5.01334 15.3117 5.467 15.3069C5.97919 15.3069 6.49139 15.302 7.00358 15.3069C7.44748 15.3069 7.78407 15.6483 7.78895 16.0825C7.78895 16.5117 7.45236 16.8581 7.01334 16.8678C6.7548 16.8727 6.49627 16.8678 6.23773 16.8678H6.23285Z" fill="#3D9CFC"/>
</g>
<defs>
<clipPath id="clip0_2747_50">
<rect width="13" height="20" fill="white"/>
</clipPath>
</defs>
</svg>
