<svg width="45" height="46" viewBox="0 0 45 46" fill="none" xmlns="http://www.w3.org/2000/svg">
<g clip-path="url(#clip0_2632_5796)">
<path d="M22.5 45.5C34.9264 45.5 45 35.4264 45 23C45 10.5736 34.9264 0.5 22.5 0.5C10.0736 0.5 0 10.5736 0 23C0 35.4264 10.0736 45.5 22.5 45.5Z" fill="#37AEE2"/>
<path d="M8.39269 24.2682C11.0526 22.8394 14.0217 21.6469 16.7959 20.4482C21.5686 18.485 26.3603 16.5557 31.2004 14.7596C32.1421 14.4536 33.8341 14.1543 34 15.5153C33.9092 17.4417 33.5354 19.3569 33.2791 21.2721C32.6284 25.4838 31.8764 29.6811 31.1431 33.8789C30.8905 35.2771 29.0944 36.001 27.9451 35.1062C25.1832 33.2868 22.4001 31.4851 19.6735 29.6236C18.7803 28.7384 19.6085 27.4674 20.4062 26.8354C22.681 24.6491 25.0934 22.7916 27.2493 20.4923C27.8309 19.1227 26.1126 20.277 25.5459 20.6306C22.4317 22.7235 19.3937 24.9442 16.1104 26.7836C14.4332 27.684 12.4785 26.9145 10.8022 26.4121C9.29909 25.8052 7.09669 25.1937 8.39269 24.2682Z" fill="white"/>
</g>
<defs>
<clipPath id="clip0_2632_5796">
<rect width="45" height="45" fill="white" transform="translate(0 0.5)"/>
</clipPath>
</defs>
</svg>
