<svg width="60" height="23" viewBox="0 0 60 23" fill="none" xmlns="http://www.w3.org/2000/svg">
<g opacity="0.5" clip-path="url(#clip0_2747_1457)">
<g opacity="0.2">
<path d="M0 4.80821C0 5.23774 0.346552 5.57821 0.781034 5.57821H6.15517C6.58965 5.57821 6.93621 5.91869 6.93621 6.34821V21.2401C6.93621 21.6696 7.28276 22.0101 7.71724 22.0101H12.7138C13.1483 22.0101 13.4948 21.6696 13.4948 21.2401V6.32202C13.4948 5.8925 13.8414 5.55202 14.2759 5.55202H19.65C20.0845 5.55202 20.431 5.21155 20.431 4.78202V0.8325C20.431 0.402976 20.0845 0.0625 19.65 0.0625H0.868965C0.346552 0.0625 0 0.402976 0 0.8325V4.80298V4.80821Z" fill="#263238"/>
<path d="M34.9755 5.36869C36.3203 5.25345 37.841 5.25345 38.3272 5.36869C38.8134 5.4525 39.2169 5.51012 39.2169 5.4525C39.2169 5.39488 39.2169 4.76631 39.2479 4.04869C39.2789 3.33107 39.3617 2.4406 39.5065 2.06869C39.6514 1.69679 39.8789 1.26726 40.0496 1.0944C40.2203 0.921548 40.4531 0.7225 40.5669 0.633452C40.6807 0.549643 40.9962 0.376786 41.2548 0.261548C41.5134 0.14631 41.5393 0.0625 41.3117 0.0625H24.6048C23.9479 0.0625 23.4307 0.408214 23.4307 0.837738V21.0935C23.4307 21.5806 23.772 22.0101 24.2324 22.0101H30.1031C30.1341 22.0101 29.9893 21.4654 29.7876 20.7739C29.5858 20.0877 29.4462 18.7363 29.4462 17.762C29.4772 16.7877 29.5341 15.9811 29.56 15.9811H32.11C33.4548 15.9811 34.8307 15.8973 35.1151 15.8082C35.3996 15.693 35.6893 15.3787 35.7462 15.0644C35.8031 14.7501 35.8341 13.8858 35.8341 13.1158V11.6544C35.8341 11.5968 35.6065 11.5706 35.291 11.5706H34.2048C33.8893 11.5706 33.0307 11.3977 32.2858 11.2249C31.541 11.0258 30.6255 10.392 30.2789 9.84726C29.9376 9.3025 29.5651 8.21298 29.4462 7.49536C29.3583 6.77774 29.2755 5.97631 29.2755 5.74583C29.2755 5.51536 29.3065 5.31631 29.3324 5.31631H29.8755C30.1341 5.31631 30.8479 5.37393 31.422 5.43155C31.9962 5.48917 33.5686 5.45774 34.9445 5.34774L34.9755 5.37393V5.36869Z" fill="#263238"/>
<path d="M53.084 2.40393C52.6547 1.11536 51.5685 0.0625 50.684 0.0625H45.6254C45.5943 0.0625 45.4237 0.120119 45.284 0.177738C45.1392 0.235357 44.9116 0.408214 44.8288 0.549643C44.7409 0.691071 44.6581 0.947738 44.6581 1.0944C44.6581 1.24107 44.5702 1.92202 44.5133 2.60821C44.4564 3.2944 44.4254 4.7506 44.4564 5.92393C44.4875 7.09726 44.2288 9.00917 43.8564 10.1825C43.484 11.382 42.6564 12.9535 42.0254 13.7287C41.3944 14.4987 40.3961 15.4154 39.8271 15.8135C39.2581 16.2115 38.7719 16.9868 38.7409 17.5839C38.7099 18.1863 38.5702 19.1868 38.4564 19.8154C38.3426 20.4439 38.2288 20.9573 38.1978 20.9887C38.1978 20.9887 38.084 21.2192 37.9702 21.502C37.8564 21.7901 37.8254 21.9892 37.8823 21.9892H43.4271C43.7116 21.9892 44.0271 21.7587 44.1409 21.4444C44.2288 21.1563 44.3426 20.732 44.3995 20.5592C44.4564 20.3601 44.5702 19.9568 44.6581 19.6739C44.7461 19.3858 45.1133 19.1606 45.5168 19.1606H52.034C52.3754 19.1606 52.7478 19.4487 52.8357 19.8154C52.9495 20.1558 53.0633 20.5592 53.0944 20.7006C53.1254 20.842 53.2392 21.1877 53.3219 21.4706C53.4099 21.7587 53.7512 22.0154 54.0926 22.0154H58.9237C59.3219 22.0154 59.5806 21.7273 59.4668 21.3606C59.353 20.9887 58.8978 19.6477 58.4685 18.3592L53.0944 2.40917L53.084 2.40393ZM47.0271 14.0377C46.6547 14.0377 46.4581 13.6973 46.5719 13.2939C46.6857 12.8958 47.115 11.492 47.5133 10.1773L47.5443 10.1196C47.9426 8.83107 48.3719 7.37488 48.5168 6.88774C48.6616 6.4006 48.8892 6.43202 49.0288 6.91393C49.1737 7.40107 49.5978 8.85726 50.0012 10.1458C50.3995 11.4344 50.803 12.833 50.9168 13.2311C51.0306 13.6292 50.8857 13.9749 50.5754 13.9749H48.8633C48.2323 14.0325 47.4047 14.0325 47.0323 14.0325L47.0271 14.0377Z" fill="#263238"/>
<path d="M42.057 2.5043C42.3881 2.5043 42.657 2.23192 42.657 1.89668C42.657 1.56144 42.3881 1.28906 42.057 1.28906C41.726 1.28906 41.457 1.56144 41.457 1.89668C41.457 2.23192 41.726 2.5043 42.057 2.5043Z" fill="#263238"/>
</g>
</g>
<defs>
<clipPath id="clip0_2747_1457">
<rect width="60" height="22" fill="white" transform="translate(0 0.0625)"/>
</clipPath>
</defs>
</svg>
