<svg width="22" height="23" viewBox="0 0 22 23" fill="none" xmlns="http://www.w3.org/2000/svg">
<g clip-path="url(#clip0_2747_911)">
<path d="M11.2316 22.016H10.3053C10.2358 22.0044 10.1663 21.987 10.1026 21.9813C9.33842 21.9465 8.58 21.8365 7.85053 21.6107C3.57211 20.2908 1.08263 17.3614 0.173684 13.0367C0.0868421 12.6372 0.0578947 12.2204 0 11.8151C0 11.3694 0 10.9178 0 10.472C0.0463158 10.1246 0.0810526 9.78308 0.138947 9.43571C0.636842 6.57577 2.09579 4.28897 4.41158 2.57532C6.85474 0.769041 9.63368 0.22484 12.6211 0.687989C17.4611 1.44061 20.7205 5.43527 21.3747 9.31414C21.4442 9.7136 21.4847 10.1131 21.5426 10.5125V11.7746C21.5311 11.8441 21.5137 11.9078 21.5079 11.9772C21.2821 14.6172 20.2689 16.9098 18.4221 18.8145C16.7432 20.5513 14.6937 21.576 12.2968 21.9002C11.9437 21.9465 11.5905 21.9813 11.2374 22.0218L11.2316 22.016ZM10.7626 20.2792C15.6837 20.2387 19.7305 16.8172 19.8347 11.2246C19.9274 6.26314 15.7879 2.21059 10.7858 2.19322C5.79526 2.17586 1.62105 6.24578 1.70211 11.213C1.79474 16.7245 5.76632 20.2271 10.7626 20.2792Z" fill="#3D9CFC"/>
<path d="M11.6082 7.79298C11.6082 8.58033 11.6082 9.37347 11.6082 10.1608C11.6082 10.2535 11.6603 10.3577 11.7182 10.4329C11.8919 10.6529 11.9903 10.9019 12.0251 11.1798C12.0367 11.2782 12.0888 11.394 12.1582 11.4634C12.9919 12.3029 13.8314 13.1366 14.6651 13.976C14.914 14.225 14.9951 14.526 14.8735 14.8618C14.7577 15.1802 14.5261 15.3655 14.1903 15.4118C13.8893 15.4523 13.6461 15.3365 13.4377 15.1223C12.6272 14.3118 11.8109 13.5013 11.0003 12.685C10.8961 12.5808 10.7919 12.5229 10.6414 12.5113C10.1261 12.4592 9.76719 12.1813 9.58771 11.7008C9.40824 11.2319 9.49508 10.7977 9.82508 10.4098C9.88298 10.3403 9.91771 10.2245 9.91771 10.1319C9.91771 8.56296 9.91771 6.99983 9.91771 5.43092C9.91771 4.78251 10.4735 4.38304 11.0582 4.59725C11.394 4.71882 11.5967 5.01987 11.5967 5.41934C11.5967 6.20669 11.5967 6.99983 11.5967 7.78719L11.6082 7.79298Z" fill="#3D9CFC"/>
</g>
<defs>
<clipPath id="clip0_2747_911">
<rect width="22" height="22" fill="white" transform="translate(0 0.53125)"/>
</clipPath>
</defs>
</svg>
