<svg width="18" height="21" viewBox="0 0 18 21" fill="none" xmlns="http://www.w3.org/2000/svg">
<g clip-path="url(#clip0_2747_1508)">
<path d="M0 4.34928C0.0365385 4.1598 0.0692308 3.96994 0.11 3.78125C0.568462 1.65688 2.41885 0.121987 4.56577 0.11107C6.95654 0.0989847 9.34769 0.0978151 11.7388 0.11107C14.2531 0.125106 16.2923 2.19645 16.3058 4.73992C16.3162 6.64012 16.3085 8.54031 16.3077 10.4405C16.3077 10.9286 15.9812 11.2775 15.5338 11.2748C15.0881 11.2721 14.7704 10.9235 14.7704 10.4296C14.7692 8.57462 14.7704 6.72004 14.7696 4.86507C14.7688 3.01789 13.4277 1.66468 11.5977 1.6639C9.28346 1.66312 6.96962 1.66195 4.65539 1.66429C3.13769 1.66585 1.89769 2.68768 1.59808 4.1867C1.55654 4.39489 1.54154 4.61127 1.54154 4.82413C1.53808 8.31965 1.53731 11.8152 1.54 15.3107C1.54154 17.1064 2.89577 18.4709 4.67346 18.4729C6.52615 18.4752 8.37846 18.4717 10.2312 18.4744C10.8377 18.4752 11.215 19.0604 10.9612 19.5922C10.8496 19.8261 10.6496 19.943 10.4235 20.03H4.19231C4.15 20.0179 4.10885 19.9996 4.06577 19.9949C2.13731 19.7688 0.527308 18.2959 0.113077 16.3754C0.0711538 16.1816 0.0376923 15.9851 0 15.7894C0 11.9762 0 8.16253 0 4.34928Z" fill="#3D9CFC"/>
<path d="M14.8849 20.0288C14.7549 19.9992 14.6237 19.9735 14.4953 19.9392C14.0014 19.8082 13.5707 19.563 13.2091 19.1977C12.2976 18.2772 11.3845 17.3587 10.4783 16.4331C9.62143 15.5575 9.13489 14.4928 8.92527 13.2862C8.81681 12.6616 8.68296 12.0413 8.56258 11.4191C8.44796 10.8277 8.90681 10.3618 9.49027 10.4791C10.2933 10.6409 11.1003 10.7864 11.8972 10.975C12.8787 11.207 13.7295 11.6994 14.446 12.4175C15.361 13.3341 16.2703 14.2569 17.1783 15.1805C17.6114 15.6207 17.876 16.1501 17.9664 16.7669C17.9718 16.8047 17.9887 16.8405 17.9999 16.8772V17.4998C17.9876 17.5427 17.9722 17.5852 17.9641 17.6288C17.7549 18.7626 17.1091 19.5181 16.0345 19.8955C15.8618 19.9563 15.6783 19.9856 15.4999 20.0292H14.8845L14.8849 20.0288ZM10.2953 12.2437C10.3426 12.4916 10.3903 12.7127 10.4264 12.9353C10.5757 13.853 10.9195 14.6752 11.5776 15.3431C12.4822 16.2612 13.3857 17.1809 14.2968 18.0928C14.8087 18.6055 15.5941 18.598 16.0922 18.0928C16.5833 17.5942 16.5941 16.8016 16.0953 16.2904C15.1722 15.345 14.2399 14.4086 13.308 13.4721C12.4833 12.6441 11.4203 12.4078 10.2953 12.2437Z" fill="#3D9CFC"/>
<path d="M8.4236 4.73145C8.4236 4.49792 8.42168 4.26478 8.42399 4.03125C8.42899 3.56069 8.76014 3.21527 9.19976 3.21878C9.63245 3.22229 9.95783 3.5642 9.96129 4.0254C9.96437 4.44022 9.96014 4.85503 9.96245 5.26985C9.96629 5.98252 10.4574 6.48232 11.1582 6.48622C11.5682 6.48856 11.9782 6.48466 12.3882 6.48739C12.854 6.49051 13.1951 6.82462 13.1924 7.27063C13.1898 7.70767 12.8513 8.04412 12.3963 8.04139C11.8332 8.03788 11.2651 8.06517 10.7082 7.99967C9.4563 7.85269 8.46283 6.70923 8.42668 5.43125C8.42014 5.19811 8.42591 4.96459 8.42591 4.73106C8.42553 4.73106 8.42476 4.73106 8.42437 4.73106L8.4236 4.73145Z" fill="#3D9CFC"/>
<path d="M6.19258 14.9699C6.6022 14.9699 7.01181 14.968 7.42181 14.9703C7.8895 14.973 8.23066 15.3021 8.23104 15.7473C8.23104 16.1917 7.88989 16.5239 7.42258 16.5255C6.60335 16.5278 5.78374 16.5278 4.9645 16.5255C4.4972 16.5239 4.15527 16.1925 4.15527 15.7481C4.15527 15.304 4.49758 14.9726 4.96374 14.9699C5.37335 14.9676 5.78297 14.9695 6.19297 14.9695L6.19258 14.9699Z" fill="#3D9CFC"/>
<path d="M5.92199 8.74711C6.24853 8.74711 6.57468 8.74438 6.90122 8.74788C7.35353 8.75256 7.69084 9.08629 7.69161 9.5241C7.69237 9.96192 7.35507 10.2995 6.90353 10.3027C6.25084 10.3069 5.59776 10.3066 4.94507 10.3027C4.49353 10.2999 4.15507 9.96309 4.1543 9.52644C4.15391 9.08979 4.49237 8.75295 4.94276 8.74788C5.2693 8.74438 5.59545 8.74711 5.92199 8.74711Z" fill="#3D9CFC"/>
<path d="M5.7247 11.8608C5.99355 11.8608 6.26239 11.8573 6.53086 11.8616C6.97009 11.8686 7.30393 12.2027 7.30701 12.6323C7.31009 13.0701 6.97316 13.4117 6.52393 13.4156C5.99278 13.4202 5.46163 13.4206 4.93047 13.4156C4.49124 13.4113 4.15701 13.0736 4.15432 12.6448C4.15124 12.2078 4.48932 11.8674 4.93739 11.8612C5.1997 11.8577 5.46201 11.8604 5.72432 11.8604L5.7247 11.8608Z" fill="#3D9CFC"/>
</g>
<defs>
<clipPath id="clip0_2747_1508">
<rect width="18" height="20" fill="white" transform="translate(0 0.0625)"/>
</clipPath>
</defs>
</svg>
