<svg width="54" height="46" viewBox="0 0 54 46" fill="none" xmlns="http://www.w3.org/2000/svg">
<g clip-path="url(#clip0_2747_669)">
<path d="M27.7898 0C28.8034 0.270342 29.8064 0.556401 30.6617 1.20606C32.3281 2.47185 33.2035 4.1379 33.2605 6.221C33.2795 6.91362 33.2636 7.60834 33.2636 8.36383C33.4893 8.36383 33.676 8.36383 33.8627 8.36383C36.9677 8.36383 40.0727 8.36068 43.1777 8.36383C48.5028 8.37011 52.7543 11.8584 53.7341 17.0483C53.8532 17.677 53.8881 18.3298 53.8891 18.9711C53.9007 24.4418 53.8986 29.9126 53.8944 35.3833C53.8912 39.0749 51.1279 41.8097 47.4028 41.8181C46.7889 41.8191 46.1741 41.838 45.5613 41.8108C45.2333 41.7961 45.0772 41.8998 44.9422 42.2068C43.7483 44.9155 40.9818 46.3856 38.0403 45.8973C35.295 45.4426 33.1065 43.0608 32.8597 40.2589C32.5971 37.2757 34.6063 34.4308 37.5098 33.6754C40.5241 32.8905 43.6312 34.3313 44.8905 37.1364C45.073 37.5419 45.2807 37.6676 45.7005 37.6456C46.3302 37.6131 46.963 37.6488 47.5947 37.6341C48.7644 37.6068 49.6767 36.7319 49.6788 35.574C49.6904 29.8937 49.7189 24.2134 49.6661 18.5341C49.6377 15.3718 46.868 12.6222 43.6913 12.5656C40.2889 12.5049 36.8854 12.5499 33.482 12.5499C33.4313 12.5499 33.3818 12.5656 33.2647 12.5856C33.2647 12.7826 33.2647 12.9837 33.2647 13.186C33.2647 17.8205 33.27 22.4551 33.2615 27.0897C33.2594 28.6227 31.8704 29.637 30.4677 29.156C29.6039 28.8595 29.0586 28.0799 29.0565 27.1002C29.0502 24.9395 29.0544 22.7789 29.0544 20.6193C29.0544 15.9323 29.0544 11.2454 29.0544 6.55841C29.0544 5.00237 28.2233 4.18296 26.6465 4.18296C19.963 4.18296 13.2794 4.18296 6.59586 4.18296C5.05496 4.18296 4.21332 5.01075 4.21332 6.53011C4.21332 16.1126 4.21332 25.695 4.21332 35.2785C4.21332 36.8031 5.0518 37.6351 6.58426 37.6383C7.18121 37.6383 7.77816 37.6215 8.37301 37.6456C8.68414 37.6582 8.82441 37.5482 8.94887 37.2642C10.0046 34.8531 12.3102 33.4019 14.9532 33.4595C18.1173 33.5287 20.8363 36.1294 21.043 39.2844C21.2529 42.4835 18.9673 45.3902 15.8391 45.9005C12.8955 46.3814 10.1449 44.9092 8.94781 42.1911C8.8223 41.9061 8.67676 41.817 8.3709 41.8097C7.23395 41.7825 6.06113 41.8841 4.96953 41.6389C2.28957 41.0364 0.673789 39.2938 0.0979297 36.6156C0.0810547 36.5349 0.0346484 36.4605 0.00195312 36.383C0.00195312 26.0681 0.00195312 15.7521 0.00195312 5.43722C0.0367578 5.34292 0.0842188 5.25071 0.103203 5.15326C0.434375 3.47462 1.2602 2.07262 2.7125 1.16624C3.54887 0.644419 4.54766 0.380364 5.47367 0H27.7898ZM16.84 39.7098C16.8316 38.5625 15.8761 37.6299 14.7191 37.6383C13.5642 37.6467 12.6255 38.5949 12.6339 39.7455C12.6424 40.8928 13.5979 41.8265 14.7549 41.8181C15.9087 41.8097 16.8495 40.8583 16.8411 39.7109L16.84 39.7098ZM41.2613 39.7193C41.2571 38.5708 40.3068 37.6341 39.1498 37.6383C37.9939 37.6425 37.051 38.5855 37.0552 39.735C37.0595 40.8824 38.0108 41.8212 39.1667 41.817C40.3216 41.8128 41.2666 40.8667 41.2624 39.7193H41.2613Z" fill="white"/>
<path d="M16.6273 25.0917C18.608 25.0917 20.5887 25.0886 22.5683 25.0917C23.8962 25.0938 24.837 25.9625 24.8401 27.1769C24.8422 28.3903 23.8993 29.2705 22.5768 29.2715C18.6154 29.2747 14.655 29.2747 10.6936 29.2715C9.36786 29.2705 8.42391 28.3976 8.42286 27.1853C8.42075 25.9708 9.36364 25.0949 10.6862 25.0917C12.6669 25.0875 14.6476 25.0917 16.6273 25.0917Z" fill="white"/>
<path d="M37.0535 21.0654C37.0535 20.334 37.0461 19.6026 37.0556 18.8712C37.0714 17.6442 37.9827 16.7263 39.1671 16.7305C40.3526 16.7347 41.2512 17.6515 41.2617 18.888C41.2723 20.2114 41.2607 21.5348 41.2659 22.8582C41.2712 24.1712 42.0854 25.022 43.3922 25.0922C44.6304 25.1593 45.5153 26.0824 45.472 27.2644C45.4309 28.4139 44.4922 29.2731 43.2793 29.272C40.0014 29.2699 37.1495 26.5162 37.0609 23.2575C37.0409 22.5261 37.0577 21.7947 37.0577 21.0633C37.0567 21.0633 37.0556 21.0633 37.0546 21.0633L37.0535 21.0654Z" fill="white"/>
<path d="M26.9454 41.8153C26.5077 41.8153 26.07 41.8279 25.6323 41.8132C24.4754 41.7734 23.5799 40.8555 23.582 39.7238C23.5831 38.5911 24.4796 37.668 25.6376 37.6407C26.512 37.6198 27.3884 37.6198 28.2627 37.6407C29.4197 37.669 30.3152 38.5953 30.3141 39.728C30.3141 40.8597 29.4166 41.7744 28.2585 41.8132C27.8219 41.8279 27.3831 41.8153 26.9454 41.8153Z" fill="white"/>
</g>
<defs>
<clipPath id="clip0_2747_669">
<rect width="54" height="46" fill="white"/>
</clipPath>
</defs>
</svg>
