<svg width="45" height="46" viewBox="0 0 45 46" fill="none" xmlns="http://www.w3.org/2000/svg">
<g clip-path="url(#clip0_2632_5799)">
<path fill-rule="evenodd" clip-rule="evenodd" d="M22.4935 0.5C10.0896 0.5 0 10.5924 0 22.9998C0 27.9204 1.58685 32.4838 4.28438 36.1878L1.48087 44.5473L10.1292 41.7833C13.6862 44.1378 17.931 45.5 22.5065 45.5C34.9104 45.5 45 35.4072 45 23.0002C45 10.5928 34.9104 0.500372 22.5065 0.500372L22.4935 0.5ZM16.212 11.9289C15.7758 10.884 15.4451 10.8444 14.7842 10.8176C14.5591 10.8045 14.3083 10.7914 14.0303 10.7914C13.1704 10.7914 12.2714 11.0427 11.7291 11.5982C11.0682 12.2727 9.42827 13.8466 9.42827 17.0742C9.42827 20.3019 11.7821 23.4235 12.0993 23.8603C12.43 24.2963 16.6882 31.0159 23.2999 33.7545C28.4703 35.8973 30.0046 35.6987 31.1813 35.4475C32.9003 35.0772 35.056 33.8068 35.5982 32.2729C36.1405 30.7382 36.1405 29.4286 35.9815 29.1509C35.8229 28.8731 35.3862 28.7148 34.7253 28.3837C34.0643 28.0529 30.8507 26.4656 30.2423 26.254C29.6471 26.0292 29.0787 26.1087 28.6293 26.7437C27.9945 27.63 27.3731 28.5297 26.8704 29.0717C26.4737 29.4951 25.8254 29.5481 25.2835 29.3229C24.5562 29.0191 22.52 28.3042 20.0072 26.0688C18.0632 24.3363 16.7409 22.1804 16.3576 21.5323C15.974 20.8712 16.318 20.487 16.6218 20.1302C16.9525 19.7199 17.2697 19.4291 17.6004 19.0453C17.931 18.6619 18.1162 18.4633 18.3278 18.0135C18.5528 17.5771 18.3938 17.1273 18.2352 16.7965C18.0766 16.4657 16.7543 13.2381 16.212 11.9289Z" fill="#67C15E"/>
</g>
<defs>
<clipPath id="clip0_2632_5799">
<rect width="45" height="45" fill="white" transform="translate(0 0.5)"/>
</clipPath>
</defs>
</svg>
